<?xml version="1.0" encoding="UTF-8" standalone="no"?>
<svg
   xmlns:dc="http://purl.org/dc/elements/1.1/"
   xmlns:cc="http://creativecommons.org/ns#"
   xmlns:rdf="http://www.w3.org/1999/02/22-rdf-syntax-ns#"
   xmlns:svg="http://www.w3.org/2000/svg"
   xmlns="http://www.w3.org/2000/svg"
   xmlns:sodipodi="http://sodipodi.sourceforge.net/DTD/sodipodi-0.dtd"
   xmlns:inkscape="http://www.inkscape.org/namespaces/inkscape"
   style="fill-opacity:1; color-rendering:auto; color-interpolation:auto; text-rendering:auto; stroke:black; stroke-linecap:square; stroke-miterlimit:10; shape-rendering:auto; stroke-opacity:1; fill:black; stroke-dasharray:none; font-weight:normal; stroke-width:1; font-family:'Dialog'; font-style:normal; stroke-linejoin:miter; font-size:12px; stroke-dashoffset:0; image-rendering:auto;"
   width="560"
   height="420"
   version="1.1"
   id="svg5091"
   sodipodi:docname="H_5_M.svg"
   inkscape:version="1.0.1 (3bc2e813f5, 2020-09-07)">
  <metadata
     id="metadata5095">
    <rdf:RDF>
      <cc:Work
         rdf:about="">
        <dc:format>image/svg+xml</dc:format>
        <dc:type
           rdf:resource="http://purl.org/dc/dcmitype/StillImage" />
      </cc:Work>
    </rdf:RDF>
  </metadata>
  <sodipodi:namedview
     pagecolor="#ffffff"
     bordercolor="#666666"
     borderopacity="1"
     objecttolerance="10"
     gridtolerance="10"
     guidetolerance="10"
     inkscape:pageopacity="0"
     inkscape:pageshadow="2"
     inkscape:window-width="1920"
     inkscape:window-height="1017"
     id="namedview5093"
     showgrid="false"
     inkscape:zoom="2.0238095"
     inkscape:cx="345.099"
     inkscape:cy="120.91315"
     inkscape:window-x="-8"
     inkscape:window-y="-8"
     inkscape:window-maximized="1"
     inkscape:current-layer="g5031" />
  <!--Generated by the Batik Graphics2D SVG Generator-->
  <defs
     id="genericDefs" />
  <g
     id="g5089">
    <defs
       id="defs1">
      <clipPath
         clipPathUnits="userSpaceOnUse"
         id="clipPath1">
        <path
           d="M0 0 L560 0 L560 420 L0 420 L0 0 Z"
           id="path4737" />
      </clipPath>
    </defs>
    <g
       style="fill:white; stroke:white;"
       id="g4743">
      <rect
         x="0"
         y="0"
         width="560"
         style="clip-path:url(#clipPath1); stroke:none;"
         height="420"
         clip-path="url(#clipPath1)"
         id="rect4741" />
    </g>
    <g
       style="fill:white; text-rendering:optimizeSpeed; color-rendering:optimizeSpeed; image-rendering:optimizeSpeed; shape-rendering:crispEdges; stroke:white; color-interpolation:sRGB;"
       id="g4749">
      <rect
         x="0"
         width="560"
         height="420"
         y="0"
         style="stroke:none;"
         id="rect4745" />
      <path
         style="stroke:none;"
         d="M73 374 L507 374 L507 31 L73 31 Z"
         id="path4747" />
    </g>
    <g
       style="fill:rgb(38,38,38); text-rendering:geometricPrecision; image-rendering:optimizeQuality; color-rendering:optimizeQuality; stroke-linejoin:round; stroke:rgb(38,38,38); color-interpolation:linearRGB; stroke-width:0.6667;"
       id="g4767">
      <line
         y2="374"
         style="fill:none;"
         x1="73"
         x2="507"
         y1="374"
         id="line4751" />
      <line
         y2="369.66"
         style="fill:none;"
         x1="73"
         x2="73"
         y1="374"
         id="line4753" />
      <line
         y2="369.66"
         style="fill:none;"
         x1="145.3333"
         x2="145.3333"
         y1="374"
         id="line4755" />
      <line
         y2="369.66"
         style="fill:none;"
         x1="217.6667"
         x2="217.6667"
         y1="374"
         id="line4757" />
      <line
         y2="369.66"
         style="fill:none;"
         x1="290"
         x2="290"
         y1="374"
         id="line4759" />
      <line
         y2="369.66"
         style="fill:none;"
         x1="362.3333"
         x2="362.3333"
         y1="374"
         id="line4761" />
      <line
         y2="369.66"
         style="fill:none;"
         x1="434.6667"
         x2="434.6667"
         y1="374"
         id="line4763" />
      <line
         y2="369.66"
         style="fill:none;"
         x1="507"
         x2="507"
         y1="374"
         id="line4765" />
    </g>
    <g
       transform="translate(73,379.3333)"
       style="font-size:13.3333px; fill:rgb(38,38,38); text-rendering:geometricPrecision; image-rendering:optimizeQuality; color-rendering:optimizeQuality; font-family:'SansSerif'; stroke:rgb(38,38,38); color-interpolation:linearRGB;"
       id="g4771">
      <path
         style="stroke:none;"
         d="M-0.9531 12.9062 L-0.9531 14 L-7.1094 14 Q-7.125 13.5938 -6.9688 13.2031 Q-6.7344 12.5781 -6.2188 11.9688 Q-5.7031 11.3594 -4.7188 10.5625 Q-3.2031 9.3125 -2.6719 8.5859 Q-2.1406 7.8594 -2.1406 7.2188 Q-2.1406 6.5312 -2.625 6.0703 Q-3.1094 5.6094 -3.8906 5.6094 Q-4.7188 5.6094 -5.2109 6.1016 Q-5.7031 6.5938 -5.7188 7.4688 L-6.8906 7.3438 Q-6.7656 6.0312 -5.9844 5.3438 Q-5.2031 4.6562 -3.875 4.6562 Q-2.5312 4.6562 -1.75 5.3984 Q-0.9688 6.1406 -0.9688 7.2344 Q-0.9688 7.7969 -1.1953 8.3359 Q-1.4219 8.875 -1.9531 9.4766 Q-2.4844 10.0781 -3.7188 11.1094 Q-4.75 11.9688 -5.0391 12.2812 Q-5.3281 12.5938 -5.5156 12.9062 L-0.9531 12.9062 ZM4.1069 14 L4.1069 11.7656 L0.0757 11.7656 L0.0757 10.7188 L4.31 4.6875 L5.2475 4.6875 L5.2475 10.7188 L6.5132 10.7188 L6.5132 11.7656 L5.2475 11.7656 L5.2475 14 L4.1069 14 ZM4.1069 10.7188 L4.1069 6.5312 L1.185 10.7188 L4.1069 10.7188 Z"
         id="path4769" />
    </g>
    <g
       transform="translate(145.3333,379.3333)"
       style="font-size:13.3333px; fill:rgb(38,38,38); text-rendering:geometricPrecision; image-rendering:optimizeQuality; color-rendering:optimizeQuality; font-family:'SansSerif'; stroke:rgb(38,38,38); color-interpolation:linearRGB;"
       id="g4775">
      <path
         style="stroke:none;"
         d="M-6.4531 12.9062 L-6.4531 14 L-12.6094 14 Q-12.625 13.5938 -12.4688 13.2031 Q-12.2344 12.5781 -11.7188 11.9688 Q-11.2031 11.3594 -10.2188 10.5625 Q-8.7031 9.3125 -8.1719 8.5859 Q-7.6406 7.8594 -7.6406 7.2188 Q-7.6406 6.5312 -8.125 6.0703 Q-8.6094 5.6094 -9.3906 5.6094 Q-10.2188 5.6094 -10.7109 6.1016 Q-11.2031 6.5938 -11.2188 7.4688 L-12.3906 7.3438 Q-12.2656 6.0312 -11.4844 5.3438 Q-10.7031 4.6562 -9.375 4.6562 Q-8.0312 4.6562 -7.25 5.3984 Q-6.4688 6.1406 -6.4688 7.2344 Q-6.4688 7.7969 -6.6953 8.3359 Q-6.9219 8.875 -7.4531 9.4766 Q-7.9844 10.0781 -9.2188 11.1094 Q-10.25 11.9688 -10.5391 12.2812 Q-10.8281 12.5938 -11.0156 12.9062 L-6.4531 12.9062 ZM-1.3931 14 L-1.3931 11.7656 L-5.4243 11.7656 L-5.4243 10.7188 L-1.19 4.6875 L-0.2525 4.6875 L-0.2525 10.7188 L1.0132 10.7188 L1.0132 11.7656 L-0.2525 11.7656 L-0.2525 14 L-1.3931 14 ZM-1.3931 10.7188 L-1.3931 6.5312 L-4.315 10.7188 L-1.3931 10.7188 ZM2.9951 14 L2.9951 12.7031 L4.2919 12.7031 L4.2919 14 L2.9951 14 ZM6.0531 11.5625 L7.2406 11.4531 Q7.3812 12.3438 7.8656 12.7812 Q8.3499 13.2188 9.0374 13.2188 Q9.8656 13.2188 10.4359 12.5938 Q11.0062 11.9688 11.0062 10.9531 Q11.0062 9.9688 10.4593 9.4062 Q9.9124 8.8438 9.0218 8.8438 Q8.4593 8.8438 8.014 9.0938 Q7.5687 9.3438 7.3187 9.7344 L6.2562 9.5938 L7.1468 4.8281 L11.7718 4.8281 L11.7718 5.9062 L8.0687 5.9062 L7.5687 8.4062 Q8.3968 7.8281 9.3187 7.8281 Q10.5374 7.8281 11.3734 8.6719 Q12.2093 9.5156 12.2093 10.8438 Q12.2093 12.1094 11.4749 13.0312 Q10.5843 14.1562 9.0374 14.1562 Q7.7718 14.1562 6.9671 13.4453 Q6.1624 12.7344 6.0531 11.5625 Z"
         id="path4773" />
    </g>
    <g
       transform="translate(217.6667,379.3333)"
       style="font-size:13.3333px; fill:rgb(38,38,38); text-rendering:geometricPrecision; image-rendering:optimizeQuality; color-rendering:optimizeQuality; font-family:'SansSerif'; stroke:rgb(38,38,38); color-interpolation:linearRGB;"
       id="g4779">
      <path
         style="stroke:none;"
         d="M-0.9531 12.9062 L-0.9531 14 L-7.1094 14 Q-7.125 13.5938 -6.9688 13.2031 Q-6.7344 12.5781 -6.2188 11.9688 Q-5.7031 11.3594 -4.7188 10.5625 Q-3.2031 9.3125 -2.6719 8.5859 Q-2.1406 7.8594 -2.1406 7.2188 Q-2.1406 6.5312 -2.625 6.0703 Q-3.1094 5.6094 -3.8906 5.6094 Q-4.7188 5.6094 -5.2109 6.1016 Q-5.7031 6.5938 -5.7188 7.4688 L-6.8906 7.3438 Q-6.7656 6.0312 -5.9844 5.3438 Q-5.2031 4.6562 -3.875 4.6562 Q-2.5312 4.6562 -1.75 5.3984 Q-0.9688 6.1406 -0.9688 7.2344 Q-0.9688 7.7969 -1.1953 8.3359 Q-1.4219 8.875 -1.9531 9.4766 Q-2.4844 10.0781 -3.7188 11.1094 Q-4.75 11.9688 -5.0391 12.2812 Q-5.3281 12.5938 -5.5156 12.9062 L-0.9531 12.9062 ZM0.4507 11.5625 L1.6382 11.4531 Q1.7788 12.3438 2.2632 12.7812 Q2.7475 13.2188 3.435 13.2188 Q4.2632 13.2188 4.8335 12.5938 Q5.4038 11.9688 5.4038 10.9531 Q5.4038 9.9688 4.8569 9.4062 Q4.31 8.8438 3.4194 8.8438 Q2.8569 8.8438 2.4116 9.0938 Q1.9663 9.3438 1.7163 9.7344 L0.6538 9.5938 L1.5444 4.8281 L6.1694 4.8281 L6.1694 5.9062 L2.4663 5.9062 L1.9663 8.4062 Q2.7944 7.8281 3.7163 7.8281 Q4.935 7.8281 5.771 8.6719 Q6.6069 9.5156 6.6069 10.8438 Q6.6069 12.1094 5.8725 13.0312 Q4.9819 14.1562 3.435 14.1562 Q2.1694 14.1562 1.3647 13.4453 Q0.56 12.7344 0.4507 11.5625 Z"
         id="path4777" />
    </g>
    <g
       transform="translate(290,379.3333)"
       style="font-size:13.3333px; fill:rgb(38,38,38); text-rendering:geometricPrecision; image-rendering:optimizeQuality; color-rendering:optimizeQuality; font-family:'SansSerif'; stroke:rgb(38,38,38); color-interpolation:linearRGB;"
       id="g4783">
      <path
         style="stroke:none;"
         d="M-6.4531 12.9062 L-6.4531 14 L-12.6094 14 Q-12.625 13.5938 -12.4688 13.2031 Q-12.2344 12.5781 -11.7188 11.9688 Q-11.2031 11.3594 -10.2188 10.5625 Q-8.7031 9.3125 -8.1719 8.5859 Q-7.6406 7.8594 -7.6406 7.2188 Q-7.6406 6.5312 -8.125 6.0703 Q-8.6094 5.6094 -9.3906 5.6094 Q-10.2188 5.6094 -10.7109 6.1016 Q-11.2031 6.5938 -11.2188 7.4688 L-12.3906 7.3438 Q-12.2656 6.0312 -11.4844 5.3438 Q-10.7031 4.6562 -9.375 4.6562 Q-8.0312 4.6562 -7.25 5.3984 Q-6.4688 6.1406 -6.4688 7.2344 Q-6.4688 7.7969 -6.6953 8.3359 Q-6.9219 8.875 -7.4531 9.4766 Q-7.9844 10.0781 -9.2188 11.1094 Q-10.25 11.9688 -10.5391 12.2812 Q-10.8281 12.5938 -11.0156 12.9062 L-6.4531 12.9062 ZM-5.0493 11.5625 L-3.8618 11.4531 Q-3.7212 12.3438 -3.2368 12.7812 Q-2.7525 13.2188 -2.065 13.2188 Q-1.2368 13.2188 -0.6665 12.5938 Q-0.0962 11.9688 -0.0962 10.9531 Q-0.0962 9.9688 -0.6431 9.4062 Q-1.19 8.8438 -2.0806 8.8438 Q-2.6431 8.8438 -3.0884 9.0938 Q-3.5337 9.3438 -3.7837 9.7344 L-4.8462 9.5938 L-3.9556 4.8281 L0.6694 4.8281 L0.6694 5.9062 L-3.0337 5.9062 L-3.5337 8.4062 Q-2.7056 7.8281 -1.7837 7.8281 Q-0.565 7.8281 0.271 8.6719 Q1.1069 9.5156 1.1069 10.8438 Q1.1069 12.1094 0.3725 13.0312 Q-0.5181 14.1562 -2.065 14.1562 Q-3.3306 14.1562 -4.1353 13.4453 Q-4.94 12.7344 -5.0493 11.5625 ZM2.9951 14 L2.9951 12.7031 L4.2919 12.7031 L4.2919 14 L2.9951 14 ZM6.0531 11.5625 L7.2406 11.4531 Q7.3812 12.3438 7.8656 12.7812 Q8.3499 13.2188 9.0374 13.2188 Q9.8656 13.2188 10.4359 12.5938 Q11.0062 11.9688 11.0062 10.9531 Q11.0062 9.9688 10.4593 9.4062 Q9.9124 8.8438 9.0218 8.8438 Q8.4593 8.8438 8.014 9.0938 Q7.5687 9.3438 7.3187 9.7344 L6.2562 9.5938 L7.1468 4.8281 L11.7718 4.8281 L11.7718 5.9062 L8.0687 5.9062 L7.5687 8.4062 Q8.3968 7.8281 9.3187 7.8281 Q10.5374 7.8281 11.3734 8.6719 Q12.2093 9.5156 12.2093 10.8438 Q12.2093 12.1094 11.4749 13.0312 Q10.5843 14.1562 9.0374 14.1562 Q7.7718 14.1562 6.9671 13.4453 Q6.1624 12.7344 6.0531 11.5625 Z"
         id="path4781" />
    </g>
    <g
       transform="translate(362.3333,379.3333)"
       style="font-size:13.3333px; fill:rgb(38,38,38); text-rendering:geometricPrecision; image-rendering:optimizeQuality; color-rendering:optimizeQuality; font-family:'SansSerif'; stroke:rgb(38,38,38); color-interpolation:linearRGB;"
       id="g4787">
      <path
         style="stroke:none;"
         d="M-0.9531 12.9062 L-0.9531 14 L-7.1094 14 Q-7.125 13.5938 -6.9688 13.2031 Q-6.7344 12.5781 -6.2188 11.9688 Q-5.7031 11.3594 -4.7188 10.5625 Q-3.2031 9.3125 -2.6719 8.5859 Q-2.1406 7.8594 -2.1406 7.2188 Q-2.1406 6.5312 -2.625 6.0703 Q-3.1094 5.6094 -3.8906 5.6094 Q-4.7188 5.6094 -5.2109 6.1016 Q-5.7031 6.5938 -5.7188 7.4688 L-6.8906 7.3438 Q-6.7656 6.0312 -5.9844 5.3438 Q-5.2031 4.6562 -3.875 4.6562 Q-2.5312 4.6562 -1.75 5.3984 Q-0.9688 6.1406 -0.9688 7.2344 Q-0.9688 7.7969 -1.1953 8.3359 Q-1.4219 8.875 -1.9531 9.4766 Q-2.4844 10.0781 -3.7188 11.1094 Q-4.75 11.9688 -5.0391 12.2812 Q-5.3281 12.5938 -5.5156 12.9062 L-0.9531 12.9062 ZM6.3725 6.9688 L5.2319 7.0625 Q5.0913 6.3906 4.81 6.0781 Q4.3413 5.5938 3.6694 5.5938 Q3.1225 5.5938 2.7007 5.9062 Q2.1694 6.2969 1.8569 7.0469 Q1.5444 7.7969 1.5288 9.2031 Q1.935 8.5781 2.5366 8.2734 Q3.1382 7.9688 3.7944 7.9688 Q4.935 7.9688 5.7397 8.8047 Q6.5444 9.6406 6.5444 10.9844 Q6.5444 11.8594 6.1616 12.6094 Q5.7788 13.3594 5.1225 13.7578 Q4.4663 14.1562 3.6225 14.1562 Q2.2007 14.1562 1.2944 13.1094 Q0.3882 12.0625 0.3882 9.6406 Q0.3882 6.9531 1.3882 5.7188 Q2.2632 4.6562 3.7319 4.6562 Q4.8257 4.6562 5.5288 5.2734 Q6.2319 5.8906 6.3725 6.9688 ZM1.7007 10.9844 Q1.7007 11.5781 1.9507 12.1172 Q2.2007 12.6562 2.6538 12.9375 Q3.1069 13.2188 3.6069 13.2188 Q4.3257 13.2188 4.8491 12.6328 Q5.3725 12.0469 5.3725 11.0469 Q5.3725 10.0781 4.8569 9.5234 Q4.3413 8.9688 3.56 8.9688 Q2.7788 8.9688 2.2397 9.5234 Q1.7007 10.0781 1.7007 10.9844 Z"
         id="path4785" />
    </g>
    <g
       transform="translate(434.6667,379.3333)"
       style="font-size:13.3333px; fill:rgb(38,38,38); text-rendering:geometricPrecision; image-rendering:optimizeQuality; color-rendering:optimizeQuality; font-family:'SansSerif'; stroke:rgb(38,38,38); color-interpolation:linearRGB;"
       id="g4791">
      <path
         style="stroke:none;"
         d="M-6.4531 12.9062 L-6.4531 14 L-12.6094 14 Q-12.625 13.5938 -12.4688 13.2031 Q-12.2344 12.5781 -11.7188 11.9688 Q-11.2031 11.3594 -10.2188 10.5625 Q-8.7031 9.3125 -8.1719 8.5859 Q-7.6406 7.8594 -7.6406 7.2188 Q-7.6406 6.5312 -8.125 6.0703 Q-8.6094 5.6094 -9.3906 5.6094 Q-10.2188 5.6094 -10.7109 6.1016 Q-11.2031 6.5938 -11.2188 7.4688 L-12.3906 7.3438 Q-12.2656 6.0312 -11.4844 5.3438 Q-10.7031 4.6562 -9.375 4.6562 Q-8.0312 4.6562 -7.25 5.3984 Q-6.4688 6.1406 -6.4688 7.2344 Q-6.4688 7.7969 -6.6953 8.3359 Q-6.9219 8.875 -7.4531 9.4766 Q-7.9844 10.0781 -9.2188 11.1094 Q-10.25 11.9688 -10.5391 12.2812 Q-10.8281 12.5938 -11.0156 12.9062 L-6.4531 12.9062 ZM0.8725 6.9688 L-0.2681 7.0625 Q-0.4087 6.3906 -0.69 6.0781 Q-1.1587 5.5938 -1.8306 5.5938 Q-2.3775 5.5938 -2.7993 5.9062 Q-3.3306 6.2969 -3.6431 7.0469 Q-3.9556 7.7969 -3.9712 9.2031 Q-3.565 8.5781 -2.9634 8.2734 Q-2.3618 7.9688 -1.7056 7.9688 Q-0.565 7.9688 0.2397 8.8047 Q1.0444 9.6406 1.0444 10.9844 Q1.0444 11.8594 0.6616 12.6094 Q0.2788 13.3594 -0.3775 13.7578 Q-1.0337 14.1562 -1.8775 14.1562 Q-3.2993 14.1562 -4.2056 13.1094 Q-5.1118 12.0625 -5.1118 9.6406 Q-5.1118 6.9531 -4.1118 5.7188 Q-3.2368 4.6562 -1.7681 4.6562 Q-0.6743 4.6562 0.0288 5.2734 Q0.7319 5.8906 0.8725 6.9688 ZM-3.7993 10.9844 Q-3.7993 11.5781 -3.5493 12.1172 Q-3.2993 12.6562 -2.8462 12.9375 Q-2.3931 13.2188 -1.8931 13.2188 Q-1.1743 13.2188 -0.6509 12.6328 Q-0.1275 12.0469 -0.1275 11.0469 Q-0.1275 10.0781 -0.6431 9.5234 Q-1.1587 8.9688 -1.94 8.9688 Q-2.7212 8.9688 -3.2603 9.5234 Q-3.7993 10.0781 -3.7993 10.9844 ZM2.9951 14 L2.9951 12.7031 L4.2919 12.7031 L4.2919 14 L2.9951 14 ZM6.0531 11.5625 L7.2406 11.4531 Q7.3812 12.3438 7.8656 12.7812 Q8.3499 13.2188 9.0374 13.2188 Q9.8656 13.2188 10.4359 12.5938 Q11.0062 11.9688 11.0062 10.9531 Q11.0062 9.9688 10.4593 9.4062 Q9.9124 8.8438 9.0218 8.8438 Q8.4593 8.8438 8.014 9.0938 Q7.5687 9.3438 7.3187 9.7344 L6.2562 9.5938 L7.1468 4.8281 L11.7718 4.8281 L11.7718 5.9062 L8.0687 5.9062 L7.5687 8.4062 Q8.3968 7.8281 9.3187 7.8281 Q10.5374 7.8281 11.3734 8.6719 Q12.2093 9.5156 12.2093 10.8438 Q12.2093 12.1094 11.4749 13.0312 Q10.5843 14.1562 9.0374 14.1562 Q7.7718 14.1562 6.9671 13.4453 Q6.1624 12.7344 6.0531 11.5625 Z"
         id="path4789" />
    </g>
    <g
       transform="translate(507,379.3333)"
       style="font-size:13.3333px; fill:rgb(38,38,38); text-rendering:geometricPrecision; image-rendering:optimizeQuality; color-rendering:optimizeQuality; font-family:'SansSerif'; stroke:rgb(38,38,38); color-interpolation:linearRGB;"
       id="g4795">
      <path
         style="stroke:none;"
         d="M-0.9531 12.9062 L-0.9531 14 L-7.1094 14 Q-7.125 13.5938 -6.9688 13.2031 Q-6.7344 12.5781 -6.2188 11.9688 Q-5.7031 11.3594 -4.7188 10.5625 Q-3.2031 9.3125 -2.6719 8.5859 Q-2.1406 7.8594 -2.1406 7.2188 Q-2.1406 6.5312 -2.625 6.0703 Q-3.1094 5.6094 -3.8906 5.6094 Q-4.7188 5.6094 -5.2109 6.1016 Q-5.7031 6.5938 -5.7188 7.4688 L-6.8906 7.3438 Q-6.7656 6.0312 -5.9844 5.3438 Q-5.2031 4.6562 -3.875 4.6562 Q-2.5312 4.6562 -1.75 5.3984 Q-0.9688 6.1406 -0.9688 7.2344 Q-0.9688 7.7969 -1.1953 8.3359 Q-1.4219 8.875 -1.9531 9.4766 Q-2.4844 10.0781 -3.7188 11.1094 Q-4.75 11.9688 -5.0391 12.2812 Q-5.3281 12.5938 -5.5156 12.9062 L-0.9531 12.9062 ZM0.5132 5.9062 L0.5132 4.8125 L6.5444 4.8125 L6.5444 5.7031 Q5.6538 6.6562 4.7788 8.2188 Q3.9038 9.7812 3.435 11.4375 Q3.0913 12.6094 2.9975 14 L1.8257 14 Q1.8413 12.9062 2.2553 11.3516 Q2.6694 9.7969 3.435 8.3516 Q4.2007 6.9062 5.0757 5.9062 L0.5132 5.9062 Z"
         id="path4793" />
    </g>
    <g
       transform="translate(285,413)"
       style="font-size:14.6667px; fill:rgb(38,38,38); text-rendering:geometricPrecision; image-rendering:optimizeQuality; color-rendering:optimizeQuality; font-family:'mwa_cmmi10'; stroke:rgb(38,38,38); color-interpolation:linearRGB;"
       id="g4799">
      <path
         style="stroke:none;"
         d="M1.8125 0.1719 Q0.9688 0.1719 0.5938 -0.4531 Q0.2188 -1.0781 0.2188 -1.9844 Q0.2188 -2.5781 0.3203 -3.1406 Q0.4219 -3.7031 0.6406 -4.2891 Q0.8594 -4.875 1.1328 -5.3828 Q1.4062 -5.8906 1.7656 -6.375 Q1.8281 -6.4688 1.9375 -6.4688 Q2.0312 -6.4688 2.0859 -6.4062 Q2.1406 -6.3438 2.1406 -6.2656 Q2.1406 -6.1875 2.1094 -6.125 Q0.7344 -4.2344 0.7344 -2.6562 Q0.7344 -1.9688 1.0547 -1.4688 Q1.375 -0.9688 2.0156 -0.9688 Q2.5781 -0.9688 3.0625 -1.3047 Q3.5469 -1.6406 3.8906 -2.1406 Q3.8906 -2.4062 3.9844 -2.9609 Q4.0781 -3.5156 4.2734 -3.9531 Q4.4688 -4.3906 4.7344 -4.3906 Q5.0781 -4.3906 5.0781 -3.9844 Q5.0781 -3.75 4.9844 -3.3984 Q4.8906 -3.0469 4.7656 -2.7422 Q4.6406 -2.4375 4.4688 -2.0469 Q4.6406 -0.9688 5.5312 -0.9688 Q6.0625 -0.9688 6.5859 -1.2734 Q7.1094 -1.5781 7.5078 -2.0625 Q7.9062 -2.5469 8.1406 -3.1094 Q8.375 -3.6719 8.375 -4.1875 Q8.375 -4.6406 8.2344 -4.8906 Q8.0938 -5.1406 7.8594 -5.4219 Q7.625 -5.7031 7.625 -5.8594 Q7.625 -6.1562 7.8672 -6.3984 Q8.1094 -6.6406 8.4062 -6.6406 Q8.7656 -6.6406 8.9219 -6.3125 Q9.0781 -5.9844 9.0781 -5.5469 Q9.0781 -4.8594 8.8047 -3.8125 Q8.5312 -2.7656 8.1719 -2.0781 Q7.6875 -1.125 6.9609 -0.4766 Q6.2344 0.1719 5.3281 0.1719 Q4.75 0.1719 4.3906 -0.1797 Q4.0312 -0.5312 3.9375 -1.125 Q3.5156 -0.5312 2.9844 -0.1797 Q2.4531 0.1719 1.8125 0.1719 Z"
         id="path4797" />
    </g>
    <g
       style="fill:rgb(38,38,38); text-rendering:geometricPrecision; image-rendering:optimizeQuality; color-rendering:optimizeQuality; stroke-linejoin:round; stroke:rgb(38,38,38); color-interpolation:linearRGB; stroke-width:0.6667;"
       id="g4817">
      <line
         y2="31"
         style="fill:none;"
         x1="73"
         x2="73"
         y1="374"
         id="line4801" />
      <line
         y2="374"
         style="fill:none;"
         x1="73"
         x2="77.3401"
         y1="374"
         id="line4803" />
      <line
         y2="316.8333"
         style="fill:none;"
         x1="73"
         x2="77.3401"
         y1="316.8333"
         id="line4805" />
      <line
         y2="259.6667"
         style="fill:none;"
         x1="73"
         x2="77.3401"
         y1="259.6667"
         id="line4807" />
      <line
         y2="202.5"
         style="fill:none;"
         x1="73"
         x2="77.3401"
         y1="202.5"
         id="line4809" />
      <line
         y2="145.3333"
         style="fill:none;"
         x1="73"
         x2="77.3401"
         y1="145.3333"
         id="line4811" />
      <line
         y2="88.1667"
         style="fill:none;"
         x1="73"
         x2="77.3401"
         y1="88.1667"
         id="line4813" />
      <line
         y2="31"
         style="fill:none;"
         x1="73"
         x2="77.3401"
         y1="31"
         id="line4815" />
    </g>
    <g
       transform="translate(67.6665,374)"
       style="font-size:13.3333px; fill:rgb(38,38,38); text-rendering:geometricPrecision; image-rendering:optimizeQuality; color-rendering:optimizeQuality; font-family:'SansSerif'; stroke:rgb(38,38,38); color-interpolation:linearRGB;"
       id="g4821">
      <path
         style="stroke:none;"
         d="M-7.4531 0.9062 Q-7.4531 -0.7344 -7.1172 -1.7422 Q-6.7812 -2.75 -6.1094 -3.2969 Q-5.4375 -3.8438 -4.4219 -3.8438 Q-3.6719 -3.8438 -3.1094 -3.5391 Q-2.5469 -3.2344 -2.1797 -2.6719 Q-1.8125 -2.1094 -1.6016 -1.2891 Q-1.3906 -0.4688 -1.3906 0.9062 Q-1.3906 2.5469 -1.7266 3.5547 Q-2.0625 4.5625 -2.7344 5.1094 Q-3.4062 5.6562 -4.4219 5.6562 Q-5.7656 5.6562 -6.5469 4.6875 Q-7.4531 3.5312 -7.4531 0.9062 ZM-6.2812 0.9062 Q-6.2812 3.2031 -5.75 3.9609 Q-5.2188 4.7188 -4.4219 4.7188 Q-3.6406 4.7188 -3.1016 3.9609 Q-2.5625 3.2031 -2.5625 0.9062 Q-2.5625 -1.3906 -3.1016 -2.1406 Q-3.6406 -2.8906 -4.4375 -2.8906 Q-5.2188 -2.8906 -5.7031 -2.2344 Q-6.2812 -1.375 -6.2812 0.9062 Z"
         id="path4819" />
    </g>
    <g
       transform="translate(67.6665,316.8333)"
       style="font-size:13.3333px; fill:rgb(38,38,38); text-rendering:geometricPrecision; image-rendering:optimizeQuality; color-rendering:optimizeQuality; font-family:'SansSerif'; stroke:rgb(38,38,38); color-interpolation:linearRGB;"
       id="g4825">
      <path
         style="stroke:none;"
         d="M-18.4531 0.9062 Q-18.4531 -0.7344 -18.1172 -1.7422 Q-17.7812 -2.75 -17.1094 -3.2969 Q-16.4375 -3.8438 -15.4219 -3.8438 Q-14.6719 -3.8438 -14.1094 -3.5391 Q-13.5469 -3.2344 -13.1797 -2.6719 Q-12.8125 -2.1094 -12.6016 -1.2891 Q-12.3906 -0.4688 -12.3906 0.9062 Q-12.3906 2.5469 -12.7266 3.5547 Q-13.0625 4.5625 -13.7344 5.1094 Q-14.4062 5.6562 -15.4219 5.6562 Q-16.7656 5.6562 -17.5469 4.6875 Q-18.4531 3.5312 -18.4531 0.9062 ZM-17.2812 0.9062 Q-17.2812 3.2031 -16.75 3.9609 Q-16.2188 4.7188 -15.4219 4.7188 Q-14.6406 4.7188 -14.1016 3.9609 Q-13.5625 3.2031 -13.5625 0.9062 Q-13.5625 -1.3906 -14.1016 -2.1406 Q-14.6406 -2.8906 -15.4375 -2.8906 Q-16.2188 -2.8906 -16.7031 -2.2344 Q-17.2812 -1.375 -17.2812 0.9062 ZM-10.4087 5.5 L-10.4087 4.2031 L-9.1118 4.2031 L-9.1118 5.5 L-10.4087 5.5 ZM-1.3507 4.4062 L-1.3507 5.5 L-7.507 5.5 Q-7.5226 5.0938 -7.3663 4.7031 Q-7.132 4.0781 -6.6163 3.4688 Q-6.1007 2.8594 -5.1163 2.0625 Q-3.6007 0.8125 -3.0695 0.0859 Q-2.5382 -0.6406 -2.5382 -1.2812 Q-2.5382 -1.9688 -3.0226 -2.4297 Q-3.507 -2.8906 -4.2882 -2.8906 Q-5.1163 -2.8906 -5.6085 -2.3984 Q-6.1007 -1.9062 -6.1163 -1.0312 L-7.2882 -1.1562 Q-7.1632 -2.4688 -6.382 -3.1562 Q-5.6007 -3.8438 -4.2726 -3.8438 Q-2.9288 -3.8438 -2.1476 -3.1016 Q-1.3663 -2.3594 -1.3663 -1.2656 Q-1.3663 -0.7031 -1.5929 -0.1641 Q-1.8195 0.375 -2.3507 0.9766 Q-2.882 1.5781 -4.1163 2.6094 Q-5.1476 3.4688 -5.4366 3.7812 Q-5.7257 4.0938 -5.9132 4.4062 L-1.3507 4.4062 Z"
         id="path4823" />
    </g>
    <g
       transform="translate(67.6665,259.6667)"
       style="font-size:13.3333px; fill:rgb(38,38,38); text-rendering:geometricPrecision; image-rendering:optimizeQuality; color-rendering:optimizeQuality; font-family:'SansSerif'; stroke:rgb(38,38,38); color-interpolation:linearRGB;"
       id="g4829">
      <path
         style="stroke:none;"
         d="M-18.4531 0.9062 Q-18.4531 -0.7344 -18.1172 -1.7422 Q-17.7812 -2.75 -17.1094 -3.2969 Q-16.4375 -3.8438 -15.4219 -3.8438 Q-14.6719 -3.8438 -14.1094 -3.5391 Q-13.5469 -3.2344 -13.1797 -2.6719 Q-12.8125 -2.1094 -12.6016 -1.2891 Q-12.3906 -0.4688 -12.3906 0.9062 Q-12.3906 2.5469 -12.7266 3.5547 Q-13.0625 4.5625 -13.7344 5.1094 Q-14.4062 5.6562 -15.4219 5.6562 Q-16.7656 5.6562 -17.5469 4.6875 Q-18.4531 3.5312 -18.4531 0.9062 ZM-17.2812 0.9062 Q-17.2812 3.2031 -16.75 3.9609 Q-16.2188 4.7188 -15.4219 4.7188 Q-14.6406 4.7188 -14.1016 3.9609 Q-13.5625 3.2031 -13.5625 0.9062 Q-13.5625 -1.3906 -14.1016 -2.1406 Q-14.6406 -2.8906 -15.4375 -2.8906 Q-16.2188 -2.8906 -16.7031 -2.2344 Q-17.2812 -1.375 -17.2812 0.9062 ZM-10.4087 5.5 L-10.4087 4.2031 L-9.1118 4.2031 L-9.1118 5.5 L-10.4087 5.5 ZM-3.6945 5.5 L-3.6945 3.2656 L-7.7257 3.2656 L-7.7257 2.2188 L-3.4913 -3.8125 L-2.5538 -3.8125 L-2.5538 2.2188 L-1.2882 2.2188 L-1.2882 3.2656 L-2.5538 3.2656 L-2.5538 5.5 L-3.6945 5.5 ZM-3.6945 2.2188 L-3.6945 -1.9688 L-6.6163 2.2188 L-3.6945 2.2188 Z"
         id="path4827" />
    </g>
    <g
       transform="translate(67.6665,202.5)"
       style="font-size:13.3333px; fill:rgb(38,38,38); text-rendering:geometricPrecision; image-rendering:optimizeQuality; color-rendering:optimizeQuality; font-family:'SansSerif'; stroke:rgb(38,38,38); color-interpolation:linearRGB;"
       id="g4833">
      <path
         style="stroke:none;"
         d="M-18.4531 0.9062 Q-18.4531 -0.7344 -18.1172 -1.7422 Q-17.7812 -2.75 -17.1094 -3.2969 Q-16.4375 -3.8438 -15.4219 -3.8438 Q-14.6719 -3.8438 -14.1094 -3.5391 Q-13.5469 -3.2344 -13.1797 -2.6719 Q-12.8125 -2.1094 -12.6016 -1.2891 Q-12.3906 -0.4688 -12.3906 0.9062 Q-12.3906 2.5469 -12.7266 3.5547 Q-13.0625 4.5625 -13.7344 5.1094 Q-14.4062 5.6562 -15.4219 5.6562 Q-16.7656 5.6562 -17.5469 4.6875 Q-18.4531 3.5312 -18.4531 0.9062 ZM-17.2812 0.9062 Q-17.2812 3.2031 -16.75 3.9609 Q-16.2188 4.7188 -15.4219 4.7188 Q-14.6406 4.7188 -14.1016 3.9609 Q-13.5625 3.2031 -13.5625 0.9062 Q-13.5625 -1.3906 -14.1016 -2.1406 Q-14.6406 -2.8906 -15.4375 -2.8906 Q-16.2188 -2.8906 -16.7031 -2.2344 Q-17.2812 -1.375 -17.2812 0.9062 ZM-10.4087 5.5 L-10.4087 4.2031 L-9.1118 4.2031 L-9.1118 5.5 L-10.4087 5.5 ZM-1.4288 -1.5312 L-2.5695 -1.4375 Q-2.7101 -2.1094 -2.9913 -2.4219 Q-3.4601 -2.9062 -4.132 -2.9062 Q-4.6788 -2.9062 -5.1007 -2.5938 Q-5.632 -2.2031 -5.9445 -1.4531 Q-6.257 -0.7031 -6.2726 0.7031 Q-5.8663 0.0781 -5.2648 -0.2266 Q-4.6632 -0.5312 -4.007 -0.5312 Q-2.8663 -0.5312 -2.0616 0.3047 Q-1.257 1.1406 -1.257 2.4844 Q-1.257 3.3594 -1.6398 4.1094 Q-2.0226 4.8594 -2.6788 5.2578 Q-3.3351 5.6562 -4.1788 5.6562 Q-5.6007 5.6562 -6.507 4.6094 Q-7.4132 3.5625 -7.4132 1.1406 Q-7.4132 -1.5469 -6.4132 -2.7812 Q-5.5382 -3.8438 -4.0695 -3.8438 Q-2.9757 -3.8438 -2.2726 -3.2266 Q-1.5695 -2.6094 -1.4288 -1.5312 ZM-6.1007 2.4844 Q-6.1007 3.0781 -5.8507 3.6172 Q-5.6007 4.1562 -5.1476 4.4375 Q-4.6945 4.7188 -4.1945 4.7188 Q-3.4757 4.7188 -2.9523 4.1328 Q-2.4288 3.5469 -2.4288 2.5469 Q-2.4288 1.5781 -2.9445 1.0234 Q-3.4601 0.4688 -4.2413 0.4688 Q-5.0226 0.4688 -5.5616 1.0234 Q-6.1007 1.5781 -6.1007 2.4844 Z"
         id="path4831" />
    </g>
    <g
       transform="translate(67.6665,145.3333)"
       style="font-size:13.3333px; fill:rgb(38,38,38); text-rendering:geometricPrecision; image-rendering:optimizeQuality; color-rendering:optimizeQuality; font-family:'SansSerif'; stroke:rgb(38,38,38); color-interpolation:linearRGB;"
       id="g4837">
      <path
         style="stroke:none;"
         d="M-18.4531 0.9062 Q-18.4531 -0.7344 -18.1172 -1.7422 Q-17.7812 -2.75 -17.1094 -3.2969 Q-16.4375 -3.8438 -15.4219 -3.8438 Q-14.6719 -3.8438 -14.1094 -3.5391 Q-13.5469 -3.2344 -13.1797 -2.6719 Q-12.8125 -2.1094 -12.6016 -1.2891 Q-12.3906 -0.4688 -12.3906 0.9062 Q-12.3906 2.5469 -12.7266 3.5547 Q-13.0625 4.5625 -13.7344 5.1094 Q-14.4062 5.6562 -15.4219 5.6562 Q-16.7656 5.6562 -17.5469 4.6875 Q-18.4531 3.5312 -18.4531 0.9062 ZM-17.2812 0.9062 Q-17.2812 3.2031 -16.75 3.9609 Q-16.2188 4.7188 -15.4219 4.7188 Q-14.6406 4.7188 -14.1016 3.9609 Q-13.5625 3.2031 -13.5625 0.9062 Q-13.5625 -1.3906 -14.1016 -2.1406 Q-14.6406 -2.8906 -15.4375 -2.8906 Q-16.2188 -2.8906 -16.7031 -2.2344 Q-17.2812 -1.375 -17.2812 0.9062 ZM-10.4087 5.5 L-10.4087 4.2031 L-9.1118 4.2031 L-9.1118 5.5 L-10.4087 5.5 ZM-5.6007 0.4531 Q-6.3038 0.1875 -6.6476 -0.2891 Q-6.9913 -0.7656 -6.9913 -1.4375 Q-6.9913 -2.4531 -6.2648 -3.1484 Q-5.5382 -3.8438 -4.3195 -3.8438 Q-3.1007 -3.8438 -2.3585 -3.1328 Q-1.6163 -2.4219 -1.6163 -1.4062 Q-1.6163 -0.7656 -1.9601 -0.2891 Q-2.3038 0.1875 -2.9913 0.4531 Q-2.132 0.7344 -1.6866 1.3594 Q-1.2413 1.9844 -1.2413 2.8438 Q-1.2413 4.0312 -2.0851 4.8438 Q-2.9288 5.6562 -4.3038 5.6562 Q-5.6788 5.6562 -6.5226 4.8438 Q-7.3663 4.0312 -7.3663 2.8125 Q-7.3663 1.9062 -6.9054 1.2891 Q-6.4445 0.6719 -5.6007 0.4531 ZM-5.8351 -1.4844 Q-5.8351 -0.8281 -5.4054 -0.4062 Q-4.9757 0.0156 -4.3038 0.0156 Q-3.632 0.0156 -3.2101 -0.3984 Q-2.7882 -0.8125 -2.7882 -1.4219 Q-2.7882 -2.0469 -3.2257 -2.4766 Q-3.6632 -2.9062 -4.3038 -2.9062 Q-4.9601 -2.9062 -5.3976 -2.4844 Q-5.8351 -2.0625 -5.8351 -1.4844 ZM-6.1945 2.8125 Q-6.1945 3.2969 -5.9601 3.7578 Q-5.7257 4.2188 -5.2726 4.4688 Q-4.8195 4.7188 -4.2882 4.7188 Q-3.4757 4.7188 -2.9445 4.1953 Q-2.4132 3.6719 -2.4132 2.8594 Q-2.4132 2.0312 -2.9601 1.4922 Q-3.507 0.9531 -4.3351 0.9531 Q-5.132 0.9531 -5.6632 1.4844 Q-6.1945 2.0156 -6.1945 2.8125 Z"
         id="path4835" />
    </g>
    <g
       transform="translate(67.6665,88.1667)"
       style="font-size:13.3333px; fill:rgb(38,38,38); text-rendering:geometricPrecision; image-rendering:optimizeQuality; color-rendering:optimizeQuality; font-family:'SansSerif'; stroke:rgb(38,38,38); color-interpolation:linearRGB;"
       id="g4841">
      <path
         style="stroke:none;"
         d="M-3.1562 5.5 L-4.2969 5.5 L-4.2969 -1.7812 Q-4.7188 -1.3906 -5.3828 -0.9922 Q-6.0469 -0.5938 -6.5781 -0.4062 L-6.5781 -1.5156 Q-5.625 -1.9531 -4.9062 -2.5938 Q-4.1875 -3.2344 -3.8906 -3.8438 L-3.1562 -3.8438 L-3.1562 5.5 Z"
         id="path4839" />
    </g>
    <g
       transform="translate(67.6665,31)"
       style="font-size:13.3333px; fill:rgb(38,38,38); text-rendering:geometricPrecision; image-rendering:optimizeQuality; color-rendering:optimizeQuality; font-family:'SansSerif'; stroke:rgb(38,38,38); color-interpolation:linearRGB;"
       id="g4845">
      <path
         style="stroke:none;"
         d="M-14.1562 5.5 L-15.2969 5.5 L-15.2969 -1.7812 Q-15.7188 -1.3906 -16.3828 -0.9922 Q-17.0469 -0.5938 -17.5781 -0.4062 L-17.5781 -1.5156 Q-16.625 -1.9531 -15.9062 -2.5938 Q-15.1875 -3.2344 -14.8906 -3.8438 L-14.1562 -3.8438 L-14.1562 5.5 ZM-10.4087 5.5 L-10.4087 4.2031 L-9.1118 4.2031 L-9.1118 5.5 L-10.4087 5.5 ZM-1.3507 4.4062 L-1.3507 5.5 L-7.507 5.5 Q-7.5226 5.0938 -7.3663 4.7031 Q-7.132 4.0781 -6.6163 3.4688 Q-6.1007 2.8594 -5.1163 2.0625 Q-3.6007 0.8125 -3.0695 0.0859 Q-2.5382 -0.6406 -2.5382 -1.2812 Q-2.5382 -1.9688 -3.0226 -2.4297 Q-3.507 -2.8906 -4.2882 -2.8906 Q-5.1163 -2.8906 -5.6085 -2.3984 Q-6.1007 -1.9062 -6.1163 -1.0312 L-7.2882 -1.1562 Q-7.1632 -2.4688 -6.382 -3.1562 Q-5.6007 -3.8438 -4.2726 -3.8438 Q-2.9288 -3.8438 -2.1476 -3.1016 Q-1.3663 -2.3594 -1.3663 -1.2656 Q-1.3663 -0.7031 -1.5929 -0.1641 Q-1.8195 0.375 -2.3507 0.9766 Q-2.882 1.5781 -4.1163 2.6094 Q-5.1476 3.4688 -5.4366 3.7812 Q-5.7257 4.0938 -5.9132 4.4062 L-1.3507 4.4062 Z"
         id="path4843" />
    </g>
    <g
       transform="translate(44.6667,202.4998) rotate(-90)"
       style="font-size:14.6667px; fill:rgb(38,38,38); text-rendering:geometricPrecision; image-rendering:optimizeQuality; color-rendering:optimizeQuality; font-family:'SansSerif'; stroke:rgb(38,38,38); color-interpolation:linearRGB;"
       id="g4849">
      <path
         style="stroke:none;"
         d="M-67.7969 -4 L-67.7969 -14.7344 L-66.375 -14.7344 L-66.375 -10.3281 L-60.7969 -10.3281 L-60.7969 -14.7344 L-59.375 -14.7344 L-59.375 -4 L-60.7969 -4 L-60.7969 -9.0625 L-66.375 -9.0625 L-66.375 -4 L-67.7969 -4 ZM-52.3532 -4.9531 Q-53.0876 -4.3438 -53.7595 -4.0859 Q-54.4314 -3.8281 -55.2126 -3.8281 Q-56.4939 -3.8281 -57.1814 -4.4531 Q-57.8689 -5.0781 -57.8689 -6.0469 Q-57.8689 -6.625 -57.611 -7.0938 Q-57.3532 -7.5625 -56.9314 -7.8516 Q-56.5095 -8.1406 -55.9782 -8.2812 Q-55.6032 -8.3906 -54.8064 -8.4844 Q-53.2126 -8.6719 -52.4626 -8.9375 Q-52.447 -9.2031 -52.447 -9.2812 Q-52.447 -10.0938 -52.822 -10.4219 Q-53.3376 -10.8594 -54.322 -10.8594 Q-55.2595 -10.8594 -55.7048 -10.5391 Q-56.1501 -10.2188 -56.3532 -9.3906 L-57.6501 -9.5625 Q-57.4782 -10.3906 -57.072 -10.8984 Q-56.6657 -11.4062 -55.9001 -11.6797 Q-55.1345 -11.9531 -54.1345 -11.9531 Q-53.1345 -11.9531 -52.5173 -11.7188 Q-51.9001 -11.4844 -51.6032 -11.1328 Q-51.3064 -10.7812 -51.197 -10.2344 Q-51.1345 -9.8906 -51.1345 -9.0156 L-51.1345 -7.2656 Q-51.1345 -5.4219 -51.0485 -4.9375 Q-50.9626 -4.4531 -50.7126 -4 L-52.0876 -4 Q-52.2907 -4.4062 -52.3532 -4.9531 ZM-52.4626 -7.9062 Q-53.1814 -7.6094 -54.6189 -7.4062 Q-55.4314 -7.2812 -55.7673 -7.1406 Q-56.1032 -7 -56.2829 -6.7188 Q-56.4626 -6.4375 -56.4626 -6.0938 Q-56.4626 -5.5625 -56.0642 -5.2109 Q-55.6657 -4.8594 -54.9001 -4.8594 Q-54.1345 -4.8594 -53.5407 -5.1953 Q-52.947 -5.5312 -52.6657 -6.1094 Q-52.4626 -6.5469 -52.4626 -7.4219 L-52.4626 -7.9062 ZM-49.2959 -4 L-49.2959 -11.7812 L-48.1084 -11.7812 L-48.1084 -10.5938 Q-47.6552 -11.4219 -47.2646 -11.6875 Q-46.874 -11.9531 -46.4209 -11.9531 Q-45.749 -11.9531 -45.0615 -11.5312 L-45.5146 -10.3125 Q-45.999 -10.5938 -46.4834 -10.5938 Q-46.9209 -10.5938 -47.2646 -10.3359 Q-47.6084 -10.0781 -47.749 -9.6094 Q-47.9677 -8.9062 -47.9677 -8.0781 L-47.9677 -4 L-49.2959 -4 ZM-44.3996 -4 L-44.3996 -11.7812 L-43.2121 -11.7812 L-43.2121 -10.6875 Q-42.8527 -11.2656 -42.2433 -11.6094 Q-41.634 -11.9531 -40.8527 -11.9531 Q-39.9933 -11.9531 -39.4387 -11.5938 Q-38.884 -11.2344 -38.6652 -10.5938 Q-37.7433 -11.9531 -36.259 -11.9531 Q-35.1027 -11.9531 -34.4777 -11.3125 Q-33.8527 -10.6719 -33.8527 -9.3438 L-33.8527 -4 L-35.1652 -4 L-35.1652 -8.9062 Q-35.1652 -9.6875 -35.2902 -10.0391 Q-35.4152 -10.3906 -35.759 -10.6016 Q-36.1027 -10.8125 -36.5558 -10.8125 Q-37.3683 -10.8125 -37.9152 -10.2656 Q-38.4621 -9.7188 -38.4621 -8.5156 L-38.4621 -4 L-39.7746 -4 L-39.7746 -9.0469 Q-39.7746 -9.9375 -40.0949 -10.375 Q-40.4152 -10.8125 -41.1496 -10.8125 Q-41.7121 -10.8125 -42.1808 -10.5156 Q-42.6496 -10.2188 -42.8605 -9.6562 Q-43.0715 -9.0938 -43.0715 -8.0312 L-43.0715 -4 L-44.3996 -4 ZM-32.6752 -7.8906 Q-32.6752 -10.0469 -31.4721 -11.0938 Q-30.4721 -11.9531 -29.0346 -11.9531 Q-27.4252 -11.9531 -26.4096 -10.9062 Q-25.394 -9.8594 -25.394 -8 Q-25.394 -6.5 -25.8393 -5.6406 Q-26.2846 -4.7812 -27.1518 -4.3047 Q-28.019 -3.8281 -29.0346 -3.8281 Q-30.6596 -3.8281 -31.6674 -4.875 Q-32.6752 -5.9219 -32.6752 -7.8906 ZM-31.3158 -7.8906 Q-31.3158 -6.3906 -30.6674 -5.6484 Q-30.019 -4.9062 -29.0346 -4.9062 Q-28.0502 -4.9062 -27.394 -5.6562 Q-26.7377 -6.4062 -26.7377 -7.9375 Q-26.7377 -9.375 -27.394 -10.1172 Q-28.0502 -10.8594 -29.0346 -10.8594 Q-30.019 -10.8594 -30.6674 -10.125 Q-31.3158 -9.3906 -31.3158 -7.8906 ZM-24.0397 -4 L-24.0397 -11.7812 L-22.8522 -11.7812 L-22.8522 -10.6719 Q-21.9928 -11.9531 -20.3678 -11.9531 Q-19.6647 -11.9531 -19.0788 -11.7031 Q-18.4928 -11.4531 -18.196 -11.0391 Q-17.8991 -10.625 -17.7897 -10.0625 Q-17.7116 -9.7031 -17.7116 -8.7812 L-17.7116 -4 L-19.0397 -4 L-19.0397 -8.7344 Q-19.0397 -9.5312 -19.1882 -9.9297 Q-19.3366 -10.3281 -19.7272 -10.5703 Q-20.1178 -10.8125 -20.6491 -10.8125 Q-21.4928 -10.8125 -22.1022 -10.2812 Q-22.7116 -9.75 -22.7116 -8.25 L-22.7116 -4 L-24.0397 -4 ZM-15.873 -13.2188 L-15.873 -14.7344 L-14.5605 -14.7344 L-14.5605 -13.2188 L-15.873 -13.2188 ZM-15.873 -4 L-15.873 -11.7812 L-14.5605 -11.7812 L-14.5605 -4 L-15.873 -4 ZM-7.5543 -6.8438 L-6.2575 -6.6875 Q-6.4606 -5.3438 -7.3434 -4.5859 Q-8.2262 -3.8281 -9.4918 -3.8281 Q-11.0856 -3.8281 -12.0543 -4.8672 Q-13.0231 -5.9062 -13.0231 -7.8594 Q-13.0231 -9.125 -12.609 -10.0703 Q-12.195 -11.0156 -11.3434 -11.4844 Q-10.4918 -11.9531 -9.4918 -11.9531 Q-8.2262 -11.9531 -7.4137 -11.3125 Q-6.6012 -10.6719 -6.3825 -9.5 L-7.6637 -9.2969 Q-7.8512 -10.0781 -8.3121 -10.4766 Q-8.7731 -10.875 -9.4293 -10.875 Q-10.4293 -10.875 -11.0543 -10.1562 Q-11.6793 -9.4375 -11.6793 -7.8906 Q-11.6793 -6.3281 -11.0778 -5.6172 Q-10.4762 -4.9062 -9.5075 -4.9062 Q-8.7262 -4.9062 -8.2106 -5.3828 Q-7.695 -5.8594 -7.5543 -6.8438 ZM-5.82 -6.3281 L-4.5231 -6.5312 Q-4.4137 -5.75 -3.9137 -5.3281 Q-3.4137 -4.9062 -2.5075 -4.9062 Q-1.6012 -4.9062 -1.1637 -5.2734 Q-0.7262 -5.6406 -0.7262 -6.1406 Q-0.7262 -6.5938 -1.1168 -6.8438 Q-1.3825 -7.0312 -2.4606 -7.2969 Q-3.9137 -7.6562 -4.4684 -7.9297 Q-5.0231 -8.2031 -5.3121 -8.6719 Q-5.6012 -9.1406 -5.6012 -9.7188 Q-5.6012 -10.2344 -5.3668 -10.6797 Q-5.1325 -11.125 -4.7262 -11.4062 Q-4.4137 -11.6406 -3.8825 -11.7969 Q-3.3512 -11.9531 -2.7418 -11.9531 Q-1.8356 -11.9531 -1.1403 -11.6875 Q-0.445 -11.4219 -0.1168 -10.9766 Q0.2113 -10.5312 0.3363 -9.7656 L-0.945 -9.5938 Q-1.0387 -10.2031 -1.4606 -10.5391 Q-1.8825 -10.875 -2.6481 -10.875 Q-3.5543 -10.875 -3.945 -10.5703 Q-4.3356 -10.2656 -4.3356 -9.8594 Q-4.3356 -9.6094 -4.1793 -9.4062 Q-4.0075 -9.1875 -3.6637 -9.0469 Q-3.4762 -8.9844 -2.5075 -8.7188 Q-1.1012 -8.3438 -0.5465 -8.1094 Q0.0082 -7.875 0.3207 -7.4141 Q0.6332 -6.9531 0.6332 -6.2812 Q0.6332 -5.625 0.2504 -5.0469 Q-0.1325 -4.4688 -0.859 -4.1484 Q-1.5856 -3.8281 -2.5075 -3.8281 Q-4.0231 -3.8281 -4.8121 -4.4531 Q-5.6012 -5.0781 -5.82 -6.3281 ZM11.1739 -4.9531 Q10.4395 -4.3438 9.7676 -4.0859 Q9.0958 -3.8281 8.3145 -3.8281 Q7.0333 -3.8281 6.3458 -4.4531 Q5.6583 -5.0781 5.6583 -6.0469 Q5.6583 -6.625 5.9161 -7.0938 Q6.1739 -7.5625 6.5958 -7.8516 Q7.0176 -8.1406 7.5489 -8.2812 Q7.9239 -8.3906 8.7208 -8.4844 Q10.3145 -8.6719 11.0645 -8.9375 Q11.0801 -9.2031 11.0801 -9.2812 Q11.0801 -10.0938 10.7051 -10.4219 Q10.1895 -10.8594 9.2051 -10.8594 Q8.2676 -10.8594 7.8223 -10.5391 Q7.377 -10.2188 7.1739 -9.3906 L5.877 -9.5625 Q6.0489 -10.3906 6.4551 -10.8984 Q6.8614 -11.4062 7.627 -11.6797 Q8.3926 -11.9531 9.3926 -11.9531 Q10.3926 -11.9531 11.0098 -11.7188 Q11.627 -11.4844 11.9239 -11.1328 Q12.2208 -10.7812 12.3301 -10.2344 Q12.3926 -9.8906 12.3926 -9.0156 L12.3926 -7.2656 Q12.3926 -5.4219 12.4786 -4.9375 Q12.5645 -4.4531 12.8145 -4 L11.4395 -4 Q11.2364 -4.4062 11.1739 -4.9531 ZM11.0645 -7.9062 Q10.3458 -7.6094 8.9083 -7.4062 Q8.0958 -7.2812 7.7598 -7.1406 Q7.4239 -7 7.2442 -6.7188 Q7.0645 -6.4375 7.0645 -6.0938 Q7.0645 -5.5625 7.463 -5.2109 Q7.8614 -4.8594 8.627 -4.8594 Q9.3926 -4.8594 9.9864 -5.1953 Q10.5801 -5.5312 10.8614 -6.1094 Q11.0645 -6.5469 11.0645 -7.4219 L11.0645 -7.9062 ZM14.2469 -4 L14.2469 -11.7812 L15.4344 -11.7812 L15.4344 -10.6875 Q15.7937 -11.2656 16.4031 -11.6094 Q17.0125 -11.9531 17.7937 -11.9531 Q18.6531 -11.9531 19.2078 -11.5938 Q19.7625 -11.2344 19.9812 -10.5938 Q20.9031 -11.9531 22.3875 -11.9531 Q23.5437 -11.9531 24.1687 -11.3125 Q24.7937 -10.6719 24.7937 -9.3438 L24.7937 -4 L23.4812 -4 L23.4812 -8.9062 Q23.4812 -9.6875 23.3562 -10.0391 Q23.2312 -10.3906 22.8875 -10.6016 Q22.5437 -10.8125 22.0906 -10.8125 Q21.2781 -10.8125 20.7312 -10.2656 Q20.1844 -9.7188 20.1844 -8.5156 L20.1844 -4 L18.8719 -4 L18.8719 -9.0469 Q18.8719 -9.9375 18.5516 -10.375 Q18.2312 -10.8125 17.4969 -10.8125 Q16.9344 -10.8125 16.4656 -10.5156 Q15.9969 -10.2188 15.7859 -9.6562 Q15.575 -9.0938 15.575 -8.0312 L15.575 -4 L14.2469 -4 ZM26.4556 -1.0156 L26.4556 -11.7812 L27.6588 -11.7812 L27.6588 -10.7656 Q28.0806 -11.3594 28.6197 -11.6562 Q29.1588 -11.9531 29.9244 -11.9531 Q30.9088 -11.9531 31.6744 -11.4375 Q32.44 -10.9219 32.8228 -9.9922 Q33.2056 -9.0625 33.2056 -7.9531 Q33.2056 -6.75 32.7838 -5.7969 Q32.3619 -4.8438 31.5416 -4.3359 Q30.7213 -3.8281 29.815 -3.8281 Q29.1588 -3.8281 28.6353 -4.1016 Q28.1119 -4.375 27.7838 -4.8125 L27.7838 -1.0156 L26.4556 -1.0156 ZM27.6588 -7.8438 Q27.6588 -6.3438 28.2681 -5.625 Q28.8775 -4.9062 29.7369 -4.9062 Q30.6119 -4.9062 31.2369 -5.6484 Q31.8619 -6.3906 31.8619 -7.9531 Q31.8619 -9.4375 31.2525 -10.1797 Q30.6431 -10.9219 29.7994 -10.9219 Q28.9556 -10.9219 28.3072 -10.1328 Q27.6588 -9.3438 27.6588 -7.8438 ZM34.5755 -4 L34.5755 -14.7344 L35.9036 -14.7344 L35.9036 -4 L34.5755 -4 ZM37.8785 -13.2188 L37.8785 -14.7344 L39.191 -14.7344 L39.191 -13.2188 L37.8785 -13.2188 ZM37.8785 -4 L37.8785 -11.7812 L39.191 -11.7812 L39.191 -4 L37.8785 -4 ZM44.0097 -5.1719 L44.1972 -4.0156 Q43.6347 -3.8906 43.1972 -3.8906 Q42.4784 -3.8906 42.08 -4.125 Q41.6815 -4.3594 41.5253 -4.7266 Q41.369 -5.0938 41.369 -6.2812 L41.369 -10.75 L40.4003 -10.75 L40.4003 -11.7812 L41.369 -11.7812 L41.369 -13.7031 L42.6815 -14.5 L42.6815 -11.7812 L44.0097 -11.7812 L44.0097 -10.75 L42.6815 -10.75 L42.6815 -6.2031 Q42.6815 -5.6406 42.7519 -5.4766 Q42.8222 -5.3125 42.9784 -5.2188 Q43.1347 -5.125 43.4159 -5.125 Q43.6503 -5.125 44.0097 -5.1719 ZM50.3004 -4 L50.3004 -5.1406 Q49.3785 -3.8281 47.8316 -3.8281 Q47.1441 -3.8281 46.5426 -4.0938 Q45.941 -4.3594 45.652 -4.7578 Q45.3629 -5.1562 45.2535 -5.7344 Q45.1598 -6.1094 45.1598 -6.9531 L45.1598 -11.7812 L46.4879 -11.7812 L46.4879 -7.4688 Q46.4879 -6.4375 46.566 -6.0781 Q46.691 -5.5469 47.0895 -5.25 Q47.4879 -4.9531 48.0816 -4.9531 Q48.6754 -4.9531 49.1988 -5.2578 Q49.7223 -5.5625 49.941 -6.0859 Q50.1598 -6.6094 50.1598 -7.6094 L50.1598 -11.7812 L51.4723 -11.7812 L51.4723 -4 L50.3004 -4 ZM58.389 -4 L58.389 -4.9844 Q57.6546 -3.8281 56.2171 -3.8281 Q55.2953 -3.8281 54.514 -4.3359 Q53.7328 -4.8438 53.3031 -5.7656 Q52.8734 -6.6875 52.8734 -7.875 Q52.8734 -9.0469 53.264 -9.9922 Q53.6546 -10.9375 54.4281 -11.4453 Q55.2015 -11.9531 56.1546 -11.9531 Q56.8578 -11.9531 57.4124 -11.6562 Q57.9671 -11.3594 58.3109 -10.8906 L58.3109 -14.7344 L59.6234 -14.7344 L59.6234 -4 L58.389 -4 ZM54.2328 -7.875 Q54.2328 -6.3906 54.8578 -5.6484 Q55.4828 -4.9062 56.3421 -4.9062 Q57.2015 -4.9062 57.8109 -5.6172 Q58.4203 -6.3281 58.4203 -7.7656 Q58.4203 -9.375 57.8031 -10.1172 Q57.1859 -10.8594 56.2796 -10.8594 Q55.4046 -10.8594 54.8187 -10.1406 Q54.2328 -9.4219 54.2328 -7.875 ZM66.8214 -6.5 L68.1807 -6.3438 Q67.8682 -5.1406 66.9932 -4.4844 Q66.1182 -3.8281 64.7589 -3.8281 Q63.0557 -3.8281 62.0557 -4.875 Q61.0557 -5.9219 61.0557 -7.8281 Q61.0557 -9.7812 62.0714 -10.8672 Q63.087 -11.9531 64.6964 -11.9531 Q66.2589 -11.9531 67.2432 -10.8906 Q68.2276 -9.8281 68.2276 -7.9062 Q68.2276 -7.7812 68.2276 -7.5469 L62.4151 -7.5469 Q62.4932 -6.2656 63.1417 -5.5859 Q63.7901 -4.9062 64.7745 -4.9062 Q65.4932 -4.9062 66.0089 -5.2891 Q66.5245 -5.6719 66.8214 -6.5 ZM62.4932 -8.6406 L66.837 -8.6406 Q66.7432 -9.625 66.337 -10.1094 Q65.712 -10.875 64.712 -10.875 Q63.7901 -10.875 63.1729 -10.2656 Q62.5557 -9.6562 62.4932 -8.6406 Z"
         id="path4847" />
    </g>
    <g
       style="stroke-linecap:butt; fill:rgb(231,49,51); text-rendering:geometricPrecision; image-rendering:optimizeQuality; color-rendering:optimizeQuality; stroke-linejoin:round; stroke:rgb(231,49,51); color-interpolation:linearRGB; stroke-width:1.3333;"
       id="g5031">
      <path
         d="M170.7699 373.7925 L170.7699 373.7805 L170.7699 373.7686 L170.7699 373.7567 L170.7699 373.7448 L170.7699 373.7328 L170.7699 373.7209 L170.7699 373.709 L170.7699 373.6971 L170.7699 373.6851 L170.7699 373.6732 L170.7699 373.6613 L170.7699 373.6494 L170.7699 373.6374 L170.7702 373.6255"
         style="fill:none; fill-rule:evenodd;"
         id="path4851" />
      <path
         d="M170.7699 374 L170.7699 374 L170.7699 374 L170.7699 374 L170.7699 374 L170.7699 374 L170.7699 374 L170.7699 374 L170.7699 374 L170.7699 374 L170.7699 374 L170.7699 374 L170.7699 374 L170.7699 374 L170.7702 374"
         style="fill:none; fill-rule:evenodd; stroke:rgb(75,139,191);"
         id="path4853" />
      <path
         d="M170.7699 374 L170.7699 374 L170.7699 374 L170.7699 374 L170.7699 374 L170.7699 374 L170.7699 374 L170.7699 374 L170.7699 374 L170.7699 374 L170.7699 374 L170.7699 374 L170.7699 374 L170.7699 374 L170.7702 374"
         style="fill:none; fill-rule:evenodd; stroke:rgb(95,183,92);"
         id="path4855" />
      <path
         d="M170.7702 373.6242 L170.7702 373.6019 L170.7702 373.5797 L170.7702 373.5574 L170.7702 373.5351 L170.7702 373.5128 L170.7702 373.4905 L170.7702 373.4683 L170.7702 373.446 L170.7702 373.4237 L170.7702 373.4014 L170.7702 373.3792 L170.7702 373.3569 L170.7702 373.3346 L170.7705 373.3123"
         style="fill:none; fill-rule:evenodd;"
         id="path4857" />
      <path
         d="M170.7702 374 L170.7702 374 L170.7702 374 L170.7702 374 L170.7702 374 L170.7702 374 L170.7702 374 L170.7702 374 L170.7702 374 L170.7702 374 L170.7702 374 L170.7702 374 L170.7702 374 L170.7702 374 L170.7705 374"
         style="fill:none; fill-rule:evenodd; stroke:rgb(75,139,191);"
         id="path4859" />
      <path
         d="M170.7702 374 L170.7702 374 L170.7702 374 L170.7702 374 L170.7702 374 L170.7702 374 L170.7702 374 L170.7702 374 L170.7702 374 L170.7702 374 L170.7702 374 L170.7702 374 L170.7702 374 L170.7702 374 L170.7705 374"
         style="fill:none; fill-rule:evenodd; stroke:rgb(95,183,92);"
         id="path4861" />
      <path
         d="M170.7705 373.3125 L170.7705 373.2747 L170.7705 373.237 L170.7705 373.1992 L170.7705 373.1614 L170.7705 373.1237 L170.7708 373.0859 L170.7708 373.0481 L170.7708 373.0103 L170.7708 372.9726 L170.771 372.9348 L170.771 372.897 L170.771 372.8592 L170.771 372.8215 L170.7713 372.7837"
         style="fill:none; fill-rule:evenodd;"
         id="path4863" />
      <path
         d="M170.7705 374 L170.7705 374 L170.7705 374 L170.7705 374 L170.7705 374 L170.7705 374 L170.7708 374 L170.7708 374 L170.7708 374 L170.7708 374 L170.771 374 L170.771 374 L170.771 374 L170.771 374 L170.7713 374"
         style="fill:none; fill-rule:evenodd; stroke:rgb(75,139,191);"
         id="path4865" />
      <path
         d="M170.7705 374 L170.7705 374 L170.7705 374 L170.7705 374 L170.7705 374 L170.7705 374 L170.7708 374 L170.7708 374 L170.7708 374 L170.7708 374 L170.771 374 L170.771 374 L170.771 374 L170.771 374 L170.7713 374"
         style="fill:none; fill-rule:evenodd; stroke:rgb(95,183,92);"
         id="path4867" />
      <path
         d="M170.7713 372.7834 L170.7713 372.7068 L170.7716 372.6302 L170.7719 372.5536 L170.7719 372.477 L170.7721 372.4003 L170.7724 372.3237 L170.7727 372.2471 L170.7727 372.1705 L170.7729 372.0939 L170.7732 372.0173 L170.7735 371.9407 L170.7738 371.8641 L170.7741 371.7875 L170.7743 371.7108"
         style="fill:none; fill-rule:evenodd;"
         id="path4869" />
      <path
         d="M170.7713 374 L170.7713 374 L170.7716 374 L170.7719 374 L170.7719 374 L170.7721 374 L170.7724 374 L170.7727 374 L170.7727 374 L170.7729 374 L170.7732 374 L170.7735 374 L170.7738 374 L170.7741 374 L170.7743 374"
         style="fill:none; fill-rule:evenodd; stroke:rgb(75,139,191);"
         id="path4871" />
      <path
         d="M170.7713 374 L170.7713 374 L170.7716 374 L170.7719 374 L170.7719 374 L170.7721 374 L170.7724 374 L170.7727 374 L170.7727 374 L170.7729 374 L170.7732 374 L170.7735 374 L170.7738 374 L170.7741 374 L170.7743 374"
         style="fill:none; fill-rule:evenodd; stroke:rgb(95,183,92);"
         id="path4873" />
      <path
         d="M170.7743 371.7109 L170.7749 371.5954 L170.7754 371.48 L170.7757 371.3646 L170.7763 371.2492 L170.7768 371.1337 L170.7774 371.0183 L170.7782 370.9029 L170.7787 370.7875 L170.7793 370.6721 L170.7801 370.5566 L170.7807 370.4412 L170.7815 370.3258 L170.7821 370.2104 L170.7829 370.095"
         style="fill:none; fill-rule:evenodd;"
         id="path4875" />
      <path
         d="M170.7743 374 L170.7749 374 L170.7754 374 L170.7757 374 L170.7763 374 L170.7768 374 L170.7774 374 L170.7782 374 L170.7787 374 L170.7793 374 L170.7801 374 L170.7807 374 L170.7815 374 L170.7821 374 L170.7829 374"
         style="fill:none; fill-rule:evenodd; stroke:rgb(75,139,191);"
         id="path4877" />
      <path
         d="M170.7743 374 L170.7749 374 L170.7754 374 L170.7757 374 L170.7763 374 L170.7768 374 L170.7774 374 L170.7782 374 L170.7787 374 L170.7793 374 L170.7801 374 L170.7807 374 L170.7815 374 L170.7821 374 L170.7829 374"
         style="fill:none; fill-rule:evenodd; stroke:rgb(95,183,92);"
         id="path4879" />
      <path
         d="M170.7829 370.0948 L170.7843 369.9052 L170.7856 369.7155 L170.787 369.5259 L170.7884 369.3363 L170.7901 369.1466 L170.7914 368.957 L170.7931 368.7674 L170.795 368.5778 L170.7967 368.3882 L170.7986 368.1985 L170.8006 368.0089 L170.8025 367.8194 L170.8044 367.6298 L170.8066 367.4402"
         style="fill:none; fill-rule:evenodd;"
         id="path4881" />
      <path
         d="M170.7829 374 L170.7843 374 L170.7856 374 L170.787 374 L170.7884 374 L170.7901 374 L170.7914 374 L170.7931 374 L170.795 374 L170.7967 374 L170.7986 374 L170.8006 374 L170.8025 374 L170.8044 374 L170.8066 374"
         style="fill:none; fill-rule:evenodd; stroke:rgb(75,139,191);"
         id="path4883" />
      <path
         d="M170.7829 374 L170.7843 374 L170.7856 373.9999 L170.787 373.9999 L170.7884 373.9999 L170.7901 373.9999 L170.7914 373.9999 L170.7931 373.9999 L170.795 373.9999 L170.7967 373.9999 L170.7986 373.9999 L170.8006 373.9999 L170.8025 373.9998 L170.8044 373.9998 L170.8066 373.9998"
         style="fill:none; fill-rule:evenodd; stroke:rgb(95,183,92);"
         id="path4885" />
      <path
         d="M170.8066 367.4401 L170.8102 367.1133 L170.8141 366.7865 L170.8182 366.4597 L170.8226 366.133 L170.827 365.8063 L170.8317 365.4796 L170.8364 365.153 L170.8414 364.8264 L170.8466 364.4998 L170.8521 364.1732 L170.8577 363.8467 L170.8632 363.5202 L170.8692 363.1937 L170.8753 362.8672"
         style="fill:none; fill-rule:evenodd;"
         id="path4887" />
      <path
         d="M170.8066 374 L170.8102 374 L170.8141 374 L170.8182 374 L170.8226 374 L170.827 374 L170.8317 374 L170.8364 374 L170.8414 374 L170.8466 374 L170.8521 374 L170.8577 374 L170.8632 374 L170.8692 374 L170.8753 374"
         style="fill:none; fill-rule:evenodd; stroke:rgb(75,139,191);"
         id="path4889" />
      <path
         d="M170.8066 373.9998 L170.8102 373.9998 L170.8141 373.9998 L170.8182 373.9998 L170.8226 373.9997 L170.827 373.9997 L170.8317 373.9996 L170.8364 373.9996 L170.8414 373.9995 L170.8466 373.9995 L170.8521 373.9994 L170.8577 373.9994 L170.8632 373.9993 L170.8692 373.9992 L170.8753 373.9992"
         style="fill:none; fill-rule:evenodd; stroke:rgb(95,183,92);"
         id="path4891" />
      <path
         d="M170.8753 362.8672 L170.8864 362.2994 L170.8979 361.7317 L170.9101 361.1642 L170.9228 360.5967 L170.936 360.0294 L170.9496 359.4622 L170.9639 358.8952 L170.9788 358.3283 L170.9942 357.7615 L171.0103 357.1949 L171.0265 356.6284 L171.0436 356.0621 L171.0613 355.4958 L171.0792 354.9298"
         style="fill:none; fill-rule:evenodd;"
         id="path4893" />
      <path
         d="M170.8753 374 L170.8864 374 L170.8979 374 L170.9101 374 L170.9228 374 L170.936 374 L170.9496 374 L170.9639 374 L170.9788 374 L170.9942 374 L171.0103 374 L171.0265 374 L171.0436 374 L171.0613 374 L171.0792 374"
         style="fill:none; fill-rule:evenodd; stroke:rgb(75,139,191);"
         id="path4895" />
      <path
         d="M170.8753 373.9992 L170.8864 373.9991 L170.8979 373.9989 L170.9101 373.9987 L170.9228 373.9986 L170.936 373.9984 L170.9496 373.9982 L170.9639 373.998 L170.9788 373.9977 L170.9942 373.9974 L171.0103 373.9972 L171.0265 373.9969 L171.0436 373.9966 L171.0613 373.9962 L171.0792 373.9958"
         style="fill:none; fill-rule:evenodd; stroke:rgb(95,183,92);"
         id="path4897" />
      <path
         d="M171.0792 354.9298 L171.109 354.0353 L171.1402 353.1413 L171.1725 352.2479 L171.2064 351.355 L171.2415 350.4627 L171.2779 349.5709 L171.3157 348.6797 L171.3549 347.789 L171.3954 346.8989 L171.4374 346.0094 L171.4804 345.1205 L171.5249 344.2321 L171.5709 343.3444 L171.6179 342.4573"
         style="fill:none; fill-rule:evenodd;"
         id="path4899" />
      <path
         d="M171.6179 342.4573 L171.6926 341.104 L171.7702 339.7527 L171.8507 338.4035 L171.9346 337.0562 L172.0213 335.7111 L172.1109 334.368 L172.2036 333.027 L172.2994 331.6881 L172.3982 330.3513 L172.4997 329.0167 L172.6046 327.6843 L172.7122 326.3541 L172.8226 325.0261 L172.936 323.7003"
         style="fill:none; fill-rule:evenodd;"
         id="path4905" />
      <path
         d="M172.936 323.7003 L173.1164 321.6627 L173.3038 319.6323 L173.4978 317.6092 L173.6981 315.5934 L173.905 313.5849 L174.1186 311.5838 L174.3388 309.5902 L174.5651 307.604 L174.7977 305.6253 L175.0369 303.6542 L175.2822 301.6907 L175.5336 299.7349 L175.791 297.7867 L176.0548 295.8462"
         style="fill:none; fill-rule:evenodd;"
         id="path4911" />
      <path
         d="M176.0548 295.8462 L176.4861 292.7787 L176.9314 289.7367 L177.3906 286.7202 L177.8635 283.7292 L178.3494 280.7636 L178.8486 277.8235 L179.3604 274.9086 L179.8847 272.0191 L180.4214 269.1548 L180.9699 266.3157 L181.5301 263.5018 L182.1018 260.7131 L182.6848 257.9493 L183.2786 255.2106"
         style="fill:none; fill-rule:evenodd;"
         id="path4917" />
      <path
         d="M183.2786 255.2106 L184.0148 251.9158 L184.7643 248.6672 L185.5266 245.464 L186.3012 242.3057 L187.0873 239.1919 L187.885 236.1219 L188.6935 233.0954 L189.5125 230.1117 L190.3416 227.1704 L191.1802 224.271 L192.0281 221.4131 L192.8846 218.5961 L193.7499 215.8196 L194.6229 213.0833"
         style="fill:none; fill-rule:evenodd;"
         id="path4923" />
      <path
         d="M194.6229 213.0833 L195.4805 210.4577 L196.3431 207.8754 L197.2101 205.3356 L198.0817 202.8375 L198.9572 200.3806 L199.8366 197.964 L200.7196 195.5872 L201.6056 193.2496 L202.4949 190.9505 L203.3867 188.6893 L204.2813 186.4655 L205.1784 184.2785 L206.0773 182.1278 L206.978 180.0128"
         style="fill:none; fill-rule:evenodd;"
         id="path4929" />
      <path
         d="M206.978 180.0128 L207.9283 177.8245 L208.8786 175.6782 L209.8289 173.573 L210.7789 171.5082 L211.7284 169.483 L212.6773 167.4968 L213.6257 165.5487 L214.5729 163.6382 L215.5194 161.7645 L216.4644 159.927 L217.4084 158.1251 L218.351 156.3582 L219.2922 154.6257 L220.2314 152.9271"
         style="fill:none; fill-rule:evenodd;"
         id="path4935" />
      <path
         d="M220.2314 152.9271 L221.2527 151.1151 L222.2703 149.3443 L223.2843 147.6138 L224.2948 145.9227 L225.3014 144.2704 L226.3044 142.656 L227.3032 141.0788 L228.2982 139.538 L229.2894 138.033 L230.2761 136.5631 L231.259 135.1277 L232.2377 133.7261 L233.2123 132.3577 L234.1827 131.0219"
         style="fill:none; fill-rule:evenodd;"
         id="path4941" />
      <path
         d="M234.1827 131.0219 L235.2525 129.5795 L236.3159 128.1773 L237.3727 126.8144 L238.4227 125.49 L239.4662 124.2032 L240.5032 122.9534 L241.5332 121.7396 L242.5566 120.5611 L243.5734 119.4173 L244.5836 118.3074 L245.5869 117.2307 L246.5833 116.1867 L247.573 115.1745 L248.5556 114.1938"
         style="fill:none; fill-rule:evenodd;"
         id="path4947" />
      <path
         d="M248.5556 114.1938 L249.6453 113.1347 L250.725 112.1143 L251.7948 111.1316 L252.8549 110.1858 L253.9048 109.2761 L254.9451 108.4015 L255.9751 107.5614 L256.9952 106.7549 L258.0051 105.9814 L259.0051 105.24 L259.9948 104.5301 L260.9744 103.851 L261.9435 103.2021 L262.9023 102.5827"
         style="fill:none; fill-rule:evenodd;"
         id="path4953" />
      <path
         d="M262.9023 102.5827 L263.7806 102.0351 L264.649 101.5122 L265.5074 101.0136 L266.3559 100.5388 L267.1944 100.0871 L268.0227 99.6582 L268.8412 99.2516 L269.6494 98.8668 L270.4473 98.5033 L271.2348 98.1608 L272.0119 97.8387 L272.7784 97.5368 L273.5345 97.2546 L274.28 96.9917"
         style="fill:none; fill-rule:evenodd;"
         id="path4959" />
      <path
         d="M274.28 96.9917 L274.8749 96.7929 L275.4626 96.6064 L276.0426 96.4319 L276.6152 96.2694 L277.18 96.1185 L277.7374 95.9791 L278.2868 95.851 L278.8287 95.734 L279.3626 95.6278 L279.8888 95.5324 L280.4067 95.4475 L280.9169 95.373 L281.4189 95.3086 L281.9128 95.2543"
         style="fill:none; fill-rule:evenodd;"
         id="path4965" />
      <path
         d="M281.9128 95.2543 L282.3068 95.2175 L282.6956 95.187 L283.0786 95.1629 L283.4558 95.145 L283.8272 95.1332 L284.1928 95.1274 L284.5526 95.1276 L284.9066 95.1336 L285.2545 95.1454 L285.5964 95.1629 L285.9323 95.186 L286.262 95.2146 L286.5854 95.2486 L286.9027 95.288"
         style="fill:none; fill-rule:evenodd;"
         id="path4971" />
      <path
         d="M286.9027 95.288 L287.1609 95.3247 L287.4148 95.3649 L287.664 95.4087 L287.9084 95.4559 L288.1482 95.5065 L288.3833 95.5605 L288.6135 95.6179 L288.8389 95.6785 L289.0591 95.7423 L289.2746 95.8093 L289.4848 95.8794 L289.6898 95.9525 L289.8893 96.0287 L290.0839 96.1079"
         style="fill:none; fill-rule:evenodd;"
         id="path4977" />
      <path
         d="M290.0839 96.1079 L290.2516 96.1806 L290.415 96.2555 L290.5737 96.3325 L290.7276 96.4116 L290.8769 96.4928 L291.0212 96.5761 L291.1606 96.6613 L291.295 96.7484 L291.4241 96.8375 L291.548 96.9283 L291.6664 97.021 L291.7792 97.1153 L291.8863 97.2114 L291.9872 97.3091"
         style="fill:none; fill-rule:evenodd;"
         id="path4983" />
      <path
         d="M291.9872 97.3091 L292.0689 97.3936 L292.1456 97.4791 L292.2177 97.5655 L292.2847 97.6527 L292.3468 97.7406 L292.4039 97.8293 L292.4555 97.9186 L292.5019 98.0085 L292.5424 98.099 L292.5775 98.1899 L292.6064 98.2812 L292.6296 98.3729 L292.6465 98.4648 L292.6569 98.557"
         style="fill:none; fill-rule:evenodd;"
         id="path4989" />
      <path
         d="M292.6569 98.557 L292.6605 98.6361 L292.6594 98.7149 L292.6531 98.7933 L292.6415 98.8712 L292.6249 98.9487 L292.6028 99.0257 L292.5758 99.102 L292.5432 99.1777 L292.5052 99.2527 L292.4616 99.3269 L292.4124 99.4003 L292.3575 99.4728 L292.2968 99.5444 L292.2306 99.6151"
         style="fill:none; fill-rule:evenodd;"
         id="path4995" />
      <path
         d="M292.2306 99.6151 L292.1625 99.681 L292.0896 99.7455 L292.0121 99.8087 L291.9301 99.8705 L291.8432 99.9309 L291.7519 99.9899 L291.6561 100.0476 L291.556 100.1038 L291.4514 100.1587 L291.3427 100.2122 L291.2296 100.2644 L291.1125 100.3152 L290.9914 100.3647 L290.8661 100.4129"
         style="fill:none; fill-rule:evenodd;"
         id="path5001" />
      <path
         d="M290.8661 100.4129 L290.7362 100.4602 L290.6032 100.5059 L290.4669 100.5502 L290.3275 100.5931 L290.1852 100.6347 L290.0403 100.675 L289.8924 100.714 L289.742 100.7518 L289.5891 100.7884 L289.4341 100.824 L289.2765 100.8584 L289.1165 100.8919 L288.9545 100.9244 L288.7906 100.9559"
         style="fill:none; fill-rule:evenodd;"
         id="path5007" />
      <path
         d="M288.7906 100.9559 L288.6052 100.99 L288.4181 101.023 L288.2291 101.0549 L288.0384 101.0858 L287.8458 101.1158 L287.6521 101.1449 L287.4568 101.1731 L287.26 101.2006 L287.0619 101.2274 L286.8629 101.2535 L286.6626 101.279 L286.4612 101.3039 L286.2592 101.3283 L286.0561 101.3522"
         style="fill:none; fill-rule:evenodd;"
         id="path5013" />
      <path
         d="M286.0561 101.3522 L285.8335 101.3778 L285.6105 101.4028 L285.3867 101.4274 L285.1627 101.4517 L284.9381 101.4755 L284.7135 101.499 L284.4886 101.5223 L284.2637 101.5453 L284.0385 101.5682 L283.8137 101.5909 L283.5888 101.6135 L283.3644 101.636 L283.1401 101.6585 L282.9163 101.6809"
         style="fill:none; fill-rule:evenodd;"
         id="path5019" />
      <path
         d="M282.9163 101.6809 L282.6727 101.7055 L282.4299 101.7301 L282.1879 101.7548 L281.9467 101.7797 L281.7069 101.8047 L281.4683 101.8299 L281.2307 101.8554 L280.9948 101.8812 L280.7602 101.9073 L280.5273 101.9337 L280.2961 101.9605 L280.0665 101.9877 L279.8392 102.0154 L279.6135 102.0435"
         style="fill:none; fill-rule:evenodd;"
         id="path5025" />
    </g>
    <g
       style="fill:white; text-rendering:optimizeSpeed; color-rendering:optimizeSpeed; image-rendering:optimizeSpeed; shape-rendering:crispEdges; stroke:white; color-interpolation:sRGB;"
       id="g5035">
      <path
         style="stroke:none;"
         d="M495 195 L495 124 L411 124 L411 195 Z"
         id="path5033" />
    </g>
    <g
       transform="translate(458,139)"
       style="text-rendering:geometricPrecision; font-family:'SansSerif'; color-interpolation:linearRGB; color-rendering:optimizeQuality; image-rendering:optimizeQuality;"
       id="g5039">
      <path
         style="stroke:none;"
         d="M0.2344 0 L0.2344 -0.8594 L4.2031 -5.4062 Q3.5156 -5.375 3 -5.375 L0.4688 -5.375 L0.4688 -6.2188 L5.5625 -6.2188 L5.5625 -5.5312 L2.1875 -1.5781 L1.5312 -0.8594 Q2.25 -0.9062 2.8594 -0.9062 L5.75 -0.9062 L5.75 0 L0.2344 0 Z"
         id="path5037" />
    </g>
    <g
       transform="translate(464,145)"
       style="font-size:9.6px; text-rendering:geometricPrecision; color-rendering:optimizeQuality; image-rendering:optimizeQuality; font-family:'SansSerif'; color-interpolation:linearRGB;"
       id="g5043">
      <path
         style="stroke:none;"
         d="M1.7656 -3.875 Q1.2188 -4.0781 0.9531 -4.4531 Q0.6875 -4.8281 0.6875 -5.3438 Q0.6875 -6.125 1.25 -6.6562 Q1.8125 -7.1875 2.75 -7.1875 Q3.6875 -7.1875 4.2578 -6.6406 Q4.8281 -6.0938 4.8281 -5.3125 Q4.8281 -4.8125 4.5703 -4.4453 Q4.3125 -4.0781 3.7812 -3.875 Q4.4375 -3.6719 4.7812 -3.1875 Q5.125 -2.7031 5.125 -2.0469 Q5.125 -1.125 4.4766 -0.5 Q3.8281 0.125 2.7656 0.125 Q1.7031 0.125 1.0547 -0.5078 Q0.4062 -1.1406 0.4062 -2.0781 Q0.4062 -2.7656 0.7578 -3.2422 Q1.1094 -3.7188 1.7656 -3.875 ZM1.5938 -5.375 Q1.5938 -4.8594 1.9219 -4.5391 Q2.25 -4.2188 2.7656 -4.2188 Q3.2812 -4.2188 3.6016 -4.5391 Q3.9219 -4.8594 3.9219 -5.3281 Q3.9219 -5.8125 3.5859 -6.1406 Q3.25 -6.4688 2.7656 -6.4688 Q2.25 -6.4688 1.9219 -6.1484 Q1.5938 -5.8281 1.5938 -5.375 ZM1.3125 -2.0625 Q1.3125 -1.6875 1.4922 -1.3359 Q1.6719 -0.9844 2.0234 -0.7891 Q2.375 -0.5938 2.7812 -0.5938 Q3.4062 -0.5938 3.8125 -1 Q4.2188 -1.4062 4.2188 -2.0312 Q4.2188 -2.6719 3.7969 -3.0859 Q3.375 -3.5 2.75 -3.5 Q2.125 -3.5 1.7188 -3.0938 Q1.3125 -2.6875 1.3125 -2.0625 ZM5.8825 -1.6562 L6.7262 -1.7344 Q6.8356 -1.1406 7.1403 -0.8672 Q7.445 -0.5938 7.9137 -0.5938 Q8.32 -0.5938 8.6246 -0.7812 Q8.9293 -0.9688 9.1246 -1.2812 Q9.32 -1.5938 9.4528 -2.1172 Q9.5856 -2.6406 9.5856 -3.1875 Q9.5856 -3.25 9.5856 -3.375 Q9.32 -2.9531 8.859 -2.6875 Q8.3981 -2.4219 7.8668 -2.4219 Q6.9762 -2.4219 6.3668 -3.0703 Q5.7575 -3.7188 5.7575 -4.7656 Q5.7575 -5.8594 6.3981 -6.5234 Q7.0387 -7.1875 8.0075 -7.1875 Q8.695 -7.1875 9.2731 -6.8125 Q9.8512 -6.4375 10.1559 -5.7422 Q10.4606 -5.0469 10.4606 -3.7188 Q10.4606 -2.3594 10.1637 -1.5469 Q9.8668 -0.7344 9.2731 -0.3047 Q8.6793 0.125 7.8981 0.125 Q7.0543 0.125 6.5231 -0.3438 Q5.9918 -0.8125 5.8825 -1.6562 ZM9.4762 -4.8125 Q9.4762 -5.5781 9.0778 -6.0156 Q8.6793 -6.4531 8.1168 -6.4531 Q7.5231 -6.4531 7.0856 -5.9766 Q6.6481 -5.5 6.6481 -4.7344 Q6.6481 -4.0625 7.0621 -3.6328 Q7.4762 -3.2031 8.0856 -3.2031 Q8.695 -3.2031 9.0856 -3.6328 Q9.4762 -4.0625 9.4762 -4.8125 Z"
         id="path5041" />
    </g>
    <g
       transform="translate(475,139)"
       style="text-rendering:geometricPrecision; font-family:'SansSerif'; color-interpolation:linearRGB; color-rendering:optimizeQuality; image-rendering:optimizeQuality;"
       id="g5047">
      <path
         style="stroke:none;"
         d="M0.9688 0 L0.9688 -8.5938 L2.0938 -8.5938 L2.0938 -5.0625 L6.5625 -5.0625 L6.5625 -8.5938 L7.7031 -8.5938 L7.7031 0 L6.5625 0 L6.5625 -4.0469 L2.0938 -4.0469 L2.0938 0 L0.9688 0 ZM13.1348 0 L12.0879 0 L12.0879 -6.7188 Q11.6973 -6.3594 11.0801 -5.9922 Q10.4629 -5.625 9.9785 -5.4531 L9.9785 -6.4688 Q10.8535 -6.8906 11.5176 -7.4766 Q12.1816 -8.0625 12.4629 -8.625 L13.1348 -8.625 L13.1348 0 Z"
         id="path5045" />
    </g>
    <g
       style="stroke-linecap:butt; fill:rgb(231,49,51); text-rendering:geometricPrecision; image-rendering:optimizeQuality; color-rendering:optimizeQuality; stroke-linejoin:round; stroke:rgb(231,49,51); color-interpolation:linearRGB; stroke-width:1.3333;"
       id="g5051">
      <line
         y2="137"
         style="fill:none;"
         x1="415"
         x2="455"
         y1="137"
         id="line5049" />
    </g>
    <g
       transform="translate(458,162)"
       style="text-rendering:geometricPrecision; font-family:'SansSerif'; color-interpolation:linearRGB; color-rendering:optimizeQuality; image-rendering:optimizeQuality;"
       id="g5055">
      <path
         style="stroke:none;"
         d="M0.2344 0 L0.2344 -0.8594 L4.2031 -5.4062 Q3.5156 -5.375 3 -5.375 L0.4688 -5.375 L0.4688 -6.2188 L5.5625 -6.2188 L5.5625 -5.5312 L2.1875 -1.5781 L1.5312 -0.8594 Q2.25 -0.9062 2.8594 -0.9062 L5.75 -0.9062 L5.75 0 L0.2344 0 Z"
         id="path5053" />
    </g>
    <g
       transform="translate(464,168)"
       style="font-size:9.6px; text-rendering:geometricPrecision; color-rendering:optimizeQuality; image-rendering:optimizeQuality; font-family:'SansSerif'; color-interpolation:linearRGB;"
       id="g5059">
      <path
         style="stroke:none;"
         d="M1.7656 -3.875 Q1.2188 -4.0781 0.9531 -4.4531 Q0.6875 -4.8281 0.6875 -5.3438 Q0.6875 -6.125 1.25 -6.6562 Q1.8125 -7.1875 2.75 -7.1875 Q3.6875 -7.1875 4.2578 -6.6406 Q4.8281 -6.0938 4.8281 -5.3125 Q4.8281 -4.8125 4.5703 -4.4453 Q4.3125 -4.0781 3.7812 -3.875 Q4.4375 -3.6719 4.7812 -3.1875 Q5.125 -2.7031 5.125 -2.0469 Q5.125 -1.125 4.4766 -0.5 Q3.8281 0.125 2.7656 0.125 Q1.7031 0.125 1.0547 -0.5078 Q0.4062 -1.1406 0.4062 -2.0781 Q0.4062 -2.7656 0.7578 -3.2422 Q1.1094 -3.7188 1.7656 -3.875 ZM1.5938 -5.375 Q1.5938 -4.8594 1.9219 -4.5391 Q2.25 -4.2188 2.7656 -4.2188 Q3.2812 -4.2188 3.6016 -4.5391 Q3.9219 -4.8594 3.9219 -5.3281 Q3.9219 -5.8125 3.5859 -6.1406 Q3.25 -6.4688 2.7656 -6.4688 Q2.25 -6.4688 1.9219 -6.1484 Q1.5938 -5.8281 1.5938 -5.375 ZM1.3125 -2.0625 Q1.3125 -1.6875 1.4922 -1.3359 Q1.6719 -0.9844 2.0234 -0.7891 Q2.375 -0.5938 2.7812 -0.5938 Q3.4062 -0.5938 3.8125 -1 Q4.2188 -1.4062 4.2188 -2.0312 Q4.2188 -2.6719 3.7969 -3.0859 Q3.375 -3.5 2.75 -3.5 Q2.125 -3.5 1.7188 -3.0938 Q1.3125 -2.6875 1.3125 -2.0625 ZM5.8825 -1.6562 L6.7262 -1.7344 Q6.8356 -1.1406 7.1403 -0.8672 Q7.445 -0.5938 7.9137 -0.5938 Q8.32 -0.5938 8.6246 -0.7812 Q8.9293 -0.9688 9.1246 -1.2812 Q9.32 -1.5938 9.4528 -2.1172 Q9.5856 -2.6406 9.5856 -3.1875 Q9.5856 -3.25 9.5856 -3.375 Q9.32 -2.9531 8.859 -2.6875 Q8.3981 -2.4219 7.8668 -2.4219 Q6.9762 -2.4219 6.3668 -3.0703 Q5.7575 -3.7188 5.7575 -4.7656 Q5.7575 -5.8594 6.3981 -6.5234 Q7.0387 -7.1875 8.0075 -7.1875 Q8.695 -7.1875 9.2731 -6.8125 Q9.8512 -6.4375 10.1559 -5.7422 Q10.4606 -5.0469 10.4606 -3.7188 Q10.4606 -2.3594 10.1637 -1.5469 Q9.8668 -0.7344 9.2731 -0.3047 Q8.6793 0.125 7.8981 0.125 Q7.0543 0.125 6.5231 -0.3438 Q5.9918 -0.8125 5.8825 -1.6562 ZM9.4762 -4.8125 Q9.4762 -5.5781 9.0778 -6.0156 Q8.6793 -6.4531 8.1168 -6.4531 Q7.5231 -6.4531 7.0856 -5.9766 Q6.6481 -5.5 6.6481 -4.7344 Q6.6481 -4.0625 7.0621 -3.6328 Q7.4762 -3.2031 8.0856 -3.2031 Q8.695 -3.2031 9.0856 -3.6328 Q9.4762 -4.0625 9.4762 -4.8125 Z"
         id="path5057" />
    </g>
    <g
       transform="translate(475,162)"
       style="text-rendering:geometricPrecision; font-family:'SansSerif'; color-interpolation:linearRGB; color-rendering:optimizeQuality; image-rendering:optimizeQuality;"
       id="g5063">
      <path
         style="stroke:none;"
         d="M0.9688 0 L0.9688 -8.5938 L2.0938 -8.5938 L2.0938 -5.0625 L6.5625 -5.0625 L6.5625 -8.5938 L7.7031 -8.5938 L7.7031 0 L6.5625 0 L6.5625 -4.0469 L2.0938 -4.0469 L2.0938 0 L0.9688 0 ZM14.7129 -1.0156 L14.7129 0 L9.0254 0 Q9.0254 -0.375 9.1504 -0.7344 Q9.3691 -1.3125 9.8457 -1.875 Q10.3223 -2.4375 11.2285 -3.1719 Q12.6348 -4.3281 13.127 -5 Q13.6191 -5.6719 13.6191 -6.2656 Q13.6191 -6.8906 13.166 -7.3203 Q12.7129 -7.75 11.9941 -7.75 Q11.2285 -7.75 10.7754 -7.2969 Q10.3223 -6.8438 10.3066 -6.0312 L9.2285 -6.1406 Q9.3379 -7.3594 10.0645 -7.9922 Q10.791 -8.625 12.0254 -8.625 Q13.2598 -8.625 13.9785 -7.9375 Q14.6973 -7.25 14.6973 -6.2344 Q14.6973 -5.7188 14.4863 -5.2266 Q14.2754 -4.7344 13.7832 -4.1797 Q13.291 -3.625 12.166 -2.6719 Q11.2129 -1.875 10.9395 -1.5859 Q10.666 -1.2969 10.4941 -1.0156 L14.7129 -1.0156 Z"
         id="path5061" />
    </g>
    <g
       style="stroke-linecap:butt; fill:rgb(75,139,191); text-rendering:geometricPrecision; image-rendering:optimizeQuality; color-rendering:optimizeQuality; stroke-linejoin:round; stroke:rgb(75,139,191); color-interpolation:linearRGB; stroke-width:1.3333;"
       id="g5067">
      <line
         y2="159.5"
         style="fill:none;"
         x1="415"
         x2="455"
         y1="159.5"
         id="line5065" />
    </g>
    <g
       transform="translate(458,184)"
       style="text-rendering:geometricPrecision; font-family:'SansSerif'; color-interpolation:linearRGB; color-rendering:optimizeQuality; image-rendering:optimizeQuality;"
       id="g5071">
      <path
         style="stroke:none;"
         d="M0.2344 0 L0.2344 -0.8594 L4.2031 -5.4062 Q3.5156 -5.375 3 -5.375 L0.4688 -5.375 L0.4688 -6.2188 L5.5625 -6.2188 L5.5625 -5.5312 L2.1875 -1.5781 L1.5312 -0.8594 Q2.25 -0.9062 2.8594 -0.9062 L5.75 -0.9062 L5.75 0 L0.2344 0 Z"
         id="path5069" />
    </g>
    <g
       transform="translate(464,190)"
       style="font-size:9.6px; text-rendering:geometricPrecision; color-rendering:optimizeQuality; image-rendering:optimizeQuality; font-family:'SansSerif'; color-interpolation:linearRGB;"
       id="g5075">
      <path
         style="stroke:none;"
         d="M1.7656 -3.875 Q1.2188 -4.0781 0.9531 -4.4531 Q0.6875 -4.8281 0.6875 -5.3438 Q0.6875 -6.125 1.25 -6.6562 Q1.8125 -7.1875 2.75 -7.1875 Q3.6875 -7.1875 4.2578 -6.6406 Q4.8281 -6.0938 4.8281 -5.3125 Q4.8281 -4.8125 4.5703 -4.4453 Q4.3125 -4.0781 3.7812 -3.875 Q4.4375 -3.6719 4.7812 -3.1875 Q5.125 -2.7031 5.125 -2.0469 Q5.125 -1.125 4.4766 -0.5 Q3.8281 0.125 2.7656 0.125 Q1.7031 0.125 1.0547 -0.5078 Q0.4062 -1.1406 0.4062 -2.0781 Q0.4062 -2.7656 0.7578 -3.2422 Q1.1094 -3.7188 1.7656 -3.875 ZM1.5938 -5.375 Q1.5938 -4.8594 1.9219 -4.5391 Q2.25 -4.2188 2.7656 -4.2188 Q3.2812 -4.2188 3.6016 -4.5391 Q3.9219 -4.8594 3.9219 -5.3281 Q3.9219 -5.8125 3.5859 -6.1406 Q3.25 -6.4688 2.7656 -6.4688 Q2.25 -6.4688 1.9219 -6.1484 Q1.5938 -5.8281 1.5938 -5.375 ZM1.3125 -2.0625 Q1.3125 -1.6875 1.4922 -1.3359 Q1.6719 -0.9844 2.0234 -0.7891 Q2.375 -0.5938 2.7812 -0.5938 Q3.4062 -0.5938 3.8125 -1 Q4.2188 -1.4062 4.2188 -2.0312 Q4.2188 -2.6719 3.7969 -3.0859 Q3.375 -3.5 2.75 -3.5 Q2.125 -3.5 1.7188 -3.0938 Q1.3125 -2.6875 1.3125 -2.0625 ZM5.8825 -1.6562 L6.7262 -1.7344 Q6.8356 -1.1406 7.1403 -0.8672 Q7.445 -0.5938 7.9137 -0.5938 Q8.32 -0.5938 8.6246 -0.7812 Q8.9293 -0.9688 9.1246 -1.2812 Q9.32 -1.5938 9.4528 -2.1172 Q9.5856 -2.6406 9.5856 -3.1875 Q9.5856 -3.25 9.5856 -3.375 Q9.32 -2.9531 8.859 -2.6875 Q8.3981 -2.4219 7.8668 -2.4219 Q6.9762 -2.4219 6.3668 -3.0703 Q5.7575 -3.7188 5.7575 -4.7656 Q5.7575 -5.8594 6.3981 -6.5234 Q7.0387 -7.1875 8.0075 -7.1875 Q8.695 -7.1875 9.2731 -6.8125 Q9.8512 -6.4375 10.1559 -5.7422 Q10.4606 -5.0469 10.4606 -3.7188 Q10.4606 -2.3594 10.1637 -1.5469 Q9.8668 -0.7344 9.2731 -0.3047 Q8.6793 0.125 7.8981 0.125 Q7.0543 0.125 6.5231 -0.3438 Q5.9918 -0.8125 5.8825 -1.6562 ZM9.4762 -4.8125 Q9.4762 -5.5781 9.0778 -6.0156 Q8.6793 -6.4531 8.1168 -6.4531 Q7.5231 -6.4531 7.0856 -5.9766 Q6.6481 -5.5 6.6481 -4.7344 Q6.6481 -4.0625 7.0621 -3.6328 Q7.4762 -3.2031 8.0856 -3.2031 Q8.695 -3.2031 9.0856 -3.6328 Q9.4762 -4.0625 9.4762 -4.8125 Z"
         id="path5073" />
    </g>
    <g
       transform="translate(475,184)"
       style="text-rendering:geometricPrecision; font-family:'SansSerif'; color-interpolation:linearRGB; color-rendering:optimizeQuality; image-rendering:optimizeQuality;"
       id="g5079">
      <path
         style="stroke:none;"
         d="M0.9688 0 L0.9688 -8.5938 L2.0938 -8.5938 L2.0938 -5.0625 L6.5625 -5.0625 L6.5625 -8.5938 L7.7031 -8.5938 L7.7031 0 L6.5625 0 L6.5625 -4.0469 L2.0938 -4.0469 L2.0938 0 L0.9688 0 ZM9.166 -2.2656 L10.2285 -2.4062 Q10.4004 -1.5156 10.8379 -1.1172 Q11.2754 -0.7188 11.9004 -0.7188 Q12.6504 -0.7188 13.166 -1.2344 Q13.6816 -1.75 13.6816 -2.5156 Q13.6816 -3.2344 13.2051 -3.7109 Q12.7285 -4.1875 11.9941 -4.1875 Q11.6973 -4.1875 11.2441 -4.0625 L11.3691 -5 Q11.4785 -4.9844 11.541 -4.9844 Q12.2129 -4.9844 12.752 -5.3359 Q13.291 -5.6875 13.291 -6.4219 Q13.291 -7 12.9004 -7.3828 Q12.5098 -7.7656 11.8848 -7.7656 Q11.2754 -7.7656 10.8613 -7.375 Q10.4473 -6.9844 10.3379 -6.2188 L9.2754 -6.4062 Q9.4629 -7.4531 10.1504 -8.0391 Q10.8379 -8.625 11.8535 -8.625 Q12.5566 -8.625 13.1504 -8.3203 Q13.7441 -8.0156 14.0566 -7.5 Q14.3691 -6.9844 14.3691 -6.3906 Q14.3691 -5.8438 14.0723 -5.3828 Q13.7754 -4.9219 13.1973 -4.6562 Q13.9473 -4.4844 14.3691 -3.9297 Q14.791 -3.375 14.791 -2.5312 Q14.791 -1.4062 13.9707 -0.625 Q13.1504 0.1562 11.9004 0.1562 Q10.7754 0.1562 10.0254 -0.5234 Q9.2754 -1.2031 9.166 -2.2656 Z"
         id="path5077" />
    </g>
    <g
       style="stroke-linecap:butt; fill:rgb(95,183,92); text-rendering:geometricPrecision; image-rendering:optimizeQuality; color-rendering:optimizeQuality; stroke-linejoin:round; stroke:rgb(95,183,92); color-interpolation:linearRGB; stroke-width:1.3333;"
       id="g5083">
      <line
         y2="182"
         style="fill:none;"
         x1="415"
         x2="455"
         y1="182"
         id="line5081" />
    </g>
    <g
       style="stroke-linecap:butt; fill:rgb(38,38,38); text-rendering:geometricPrecision; color-rendering:optimizeQuality; image-rendering:optimizeQuality; stroke:rgb(38,38,38); color-interpolation:linearRGB; stroke-width:0.6667;"
       id="g5087">
      <path
         d="M411 195 L411 124 L495 124 L495 195 Z"
         style="fill:none; fill-rule:evenodd;"
         id="path5085" />
    </g>
  </g>
</svg>
